<svg width="188" height="39" fill="none" xmlns="http://www.w3.org/2000/svg"><path d="M174.714 39c-2.551 0-4.858-.594-6.92-1.782-2.026-1.189-3.616-2.831-4.77-4.928-1.153-2.132-1.729-4.508-1.729-7.129 0-2.516.541-4.823 1.625-6.92 1.118-2.13 2.673-3.808 4.665-5.031 1.992-1.258 4.263-1.887 6.814-1.887 2.621 0 4.893.576 6.815 1.73 1.957 1.153 3.442 2.76 4.456 4.822 1.013 2.027 1.52 4.368 1.52 7.024 0 .315-.018.63-.053.944-.035.314-.052.489-.052.524h-20.024c.175 2.376 1.031 4.211 2.568 5.504 1.538 1.293 3.285 1.94 5.242 1.94 3.006 0 5.312-1.398 6.92-4.194l4.927 2.359a13.614 13.614 0 01-4.823 5.137c-2.027 1.258-4.42 1.887-7.181 1.887zm6.605-17.036c-.07-.84-.35-1.695-.839-2.569-.489-.874-1.258-1.607-2.306-2.201-1.014-.63-2.289-.944-3.827-.944-1.712 0-3.198.524-4.456 1.573-1.223 1.048-2.061 2.428-2.516 4.14h13.944zM148.64 39c-2.971 0-5.434-.682-7.391-2.044-1.922-1.398-3.285-3.146-4.089-5.243l5.137-2.201c.594 1.433 1.45 2.516 2.569 3.25a6.892 6.892 0 003.774 1.1c1.433 0 2.603-.261 3.512-.785.909-.56 1.363-1.276 1.363-2.15 0-.838-.367-1.52-1.101-2.044-.734-.559-1.94-1.049-3.617-1.468l-3.565-.838c-1.956-.455-3.651-1.293-5.084-2.516-1.398-1.259-2.097-2.884-2.097-4.876 0-2.41.996-4.315 2.988-5.713 1.992-1.433 4.438-2.15 7.339-2.15 2.411 0 4.543.507 6.395 1.52 1.887 1.014 3.25 2.482 4.088 4.404l-5.084 2.15c-.489-1.084-1.241-1.888-2.254-2.412a7.082 7.082 0 00-3.302-.786c-1.154 0-2.167.262-3.041.786-.874.489-1.31 1.153-1.31 1.992 0 .734.297 1.328.891 1.782.629.454 1.607.839 2.935 1.153l3.879.944c2.621.664 4.578 1.677 5.871 3.04 1.293 1.328 1.94 2.936 1.94 4.823 0 1.537-.472 2.935-1.416 4.193-.908 1.258-2.184 2.254-3.826 2.988-1.608.734-3.442 1.101-5.504 1.101zm-27.586 0c-1.852 0-3.53-.367-5.032-1.1-1.468-.77-2.639-1.818-3.512-3.146-.839-1.363-1.258-2.9-1.258-4.613 0-2.726 1.013-4.875 3.04-6.447 2.062-1.573 4.665-2.36 7.81-2.36 2.761 0 5.12.473 7.077 1.416v-1.1c0-1.573-.629-2.866-1.887-3.88-1.223-1.048-2.709-1.572-4.456-1.572-2.656 0-4.787 1.083-6.395 3.25l-4.403-3.04a12.21 12.21 0 014.56-3.775c1.852-.874 3.932-1.31 6.238-1.31 3.809 0 6.745.96 8.807 2.883 2.096 1.887 3.145 4.56 3.145 8.02V38.16h-5.609v-3.197h-.315a10.298 10.298 0 01-3.197 2.935c-1.293.734-2.831 1.101-4.613 1.101zm.944-4.77a6.969 6.969 0 003.564-.944c1.118-.664 1.992-1.52 2.621-2.568.664-1.084.996-2.237.996-3.46a12.154 12.154 0 00-5.924-1.52c-1.921 0-3.424.419-4.507 1.258-1.084.838-1.625 1.905-1.625 3.197 0 1.189.471 2.167 1.415 2.936.978.734 2.132 1.1 3.46 1.1zM96.862 39c-1.887 0-3.582-.402-5.084-1.206-1.468-.804-2.57-1.817-3.303-3.04h-.314v3.407h-5.452V.63h5.766V11.9l-.314 3.617h.314c.734-1.188 1.835-2.184 3.303-2.988 1.502-.804 3.197-1.206 5.084-1.206 2.237 0 4.298.595 6.185 1.783 1.923 1.188 3.443 2.848 4.561 4.98 1.153 2.096 1.73 4.455 1.73 7.076 0 2.621-.577 4.98-1.73 7.076-1.118 2.097-2.638 3.758-4.561 4.98A11.382 11.382 0 0196.862 39zm-.996-5.294c1.363 0 2.621-.35 3.774-1.049 1.188-.699 2.132-1.695 2.831-2.988.734-1.328 1.101-2.83 1.101-4.508 0-1.677-.367-3.163-1.101-4.455-.699-1.328-1.643-2.342-2.83-3.04a7.147 7.147 0 00-3.775-1.05 7.42 7.42 0 00-3.826 1.05c-1.154.698-2.097 1.694-2.831 2.987-.699 1.293-1.049 2.796-1.049 4.508 0 1.713.35 3.215 1.049 4.508.734 1.293 1.677 2.29 2.83 2.988a7.42 7.42 0 003.827 1.049zM66.798 39c-2.551 0-4.857-.594-6.92-1.782-2.026-1.189-3.616-2.831-4.77-4.928-1.152-2.132-1.729-4.508-1.729-7.129 0-2.516.542-4.823 1.625-6.92 1.118-2.13 2.673-3.808 4.665-5.031 1.992-1.258 4.264-1.887 6.815-1.887 2.62 0 4.892.576 6.814 1.73 1.957 1.153 3.443 2.76 4.456 4.822 1.013 2.027 1.52 4.368 1.52 7.024 0 .315-.017.63-.052.944-.035.314-.053.489-.053.524H59.145c.175 2.376 1.03 4.211 2.569 5.504 1.537 1.293 3.285 1.94 5.242 1.94 3.005 0 5.311-1.398 6.919-4.194l4.927 2.359a13.614 13.614 0 01-4.822 5.137C71.953 38.37 69.56 39 66.798 39zm6.605-17.036c-.07-.84-.35-1.695-.839-2.569-.489-.874-1.257-1.607-2.306-2.201-1.013-.63-2.289-.944-3.827-.944-1.712 0-3.197.524-4.455 1.573-1.223 1.048-2.062 2.428-2.516 4.14h13.943zm-36.026-9.803h5.451v3.88h.315c.56-1.329 1.573-2.43 3.04-3.303 1.468-.909 2.97-1.363 4.508-1.363 1.258 0 2.29.175 3.093.524v6.028c-1.188-.594-2.516-.89-3.984-.89-1.887 0-3.477.733-4.77 2.2-1.258 1.434-1.887 3.198-1.887 5.295v13.63h-5.766v-26zm-8.23-4.403c-1.083 0-2.01-.367-2.779-1.1-.733-.77-1.1-1.696-1.1-2.779s.367-1.992 1.1-2.726C27.138.384 28.064 0 29.147 0s1.992.384 2.726 1.153c.768.734 1.153 1.643 1.153 2.726s-.385 2.01-1.153 2.778c-.734.734-1.643 1.101-2.726 1.101zm-2.883 4.403h5.766v26h-5.766v-26zM0 .629h22.802v5.609H5.871v10.798h15.254v5.557H5.87V38.16H0V.63z" fill="#D3E3FD" fill-opacity=".7"/></svg>