<svg width="59" height="59" viewBox="0 0 59 59" fill="none" xmlns="http://www.w3.org/2000/svg">
<circle cx="29.0947" cy="29.072" r="29.072" fill="#52CC27"/>
<path d="M19.7094 37.7284C17.8367 35.7411 17.9298 32.6068 19.917 30.7341L24.4831 26.4312L22.4002 24.2208L17.8341 28.5237C14.6274 31.5454 14.4773 36.6047 17.499 39.8114C20.5208 43.018 25.5801 43.1682 28.7867 40.1464L33.3528 35.8436L31.2698 33.6332L26.7038 37.936C24.7165 39.8087 21.5821 39.7157 19.7094 37.7284ZM25.2163 34.6942L35.1787 25.3063L33.0272 23.0232L23.0649 32.4112L25.2163 34.6942ZM29.4568 17.571L24.8907 21.8739L26.9737 24.0843L31.5398 19.7814C33.5271 17.9087 36.6614 18.0018 38.5341 19.989C40.4068 21.9763 40.3138 25.1107 38.3265 26.9834L33.7604 31.2862L35.8434 33.4966L40.4095 29.1938C43.6161 26.172 43.7663 21.1127 40.7445 17.9061C37.7228 14.6994 32.6635 14.5493 29.4568 17.571Z" fill="white"/>
</svg>
