<svg width="59" height="59" viewBox="0 0 59 59" fill="none" xmlns="http://www.w3.org/2000/svg">
<circle cx="29.072" cy="29.072" r="29.072" fill="url(#paint0_linear_1856_534)"/>
<path d="M34.5074 17.2804C36.0532 17.285 37.5344 17.9011 38.6274 18.9942C39.7205 20.0872 40.3366 21.5684 40.3412 23.1141V34.7804C40.3366 36.3262 39.7205 37.8073 38.6274 38.9004C37.5344 39.9934 36.0532 40.6095 34.5074 40.6141H22.8412C21.2954 40.6095 19.8142 39.9934 18.7212 38.9004C17.6282 37.8073 17.0121 36.3262 17.0074 34.7804V23.1141C17.0121 21.5684 17.6282 20.0872 18.7212 18.9942C19.8142 17.9011 21.2954 17.285 22.8412 17.2804H34.5074ZM34.5074 14.9473H22.8412C18.3493 14.9473 14.6743 18.6223 14.6743 23.1141V34.7804C14.6743 39.2723 18.3493 42.9473 22.8412 42.9473H34.5074C38.9993 42.9473 42.6743 39.2723 42.6743 34.7804V23.1141C42.6743 18.6223 38.9993 14.9473 34.5074 14.9473Z" fill="white"/>
<path d="M36.2574 23.1143C35.9113 23.1143 35.573 23.0116 35.2852 22.8193C34.9974 22.627 34.7731 22.3537 34.6407 22.034C34.5082 21.7142 34.4735 21.3623 34.5411 21.0229C34.6086 20.6834 34.7753 20.3716 35.02 20.1268C35.2647 19.8821 35.5766 19.7154 35.916 19.6479C36.2555 19.5804 36.6074 19.615 36.9271 19.7475C37.2469 19.8799 37.5202 20.1042 37.7125 20.392C37.9048 20.6798 38.0074 21.0181 38.0074 21.3643C38.0079 21.5942 37.963 21.822 37.8752 22.0345C37.7875 22.2471 37.6586 22.4402 37.496 22.6028C37.3334 22.7654 37.1403 22.8943 36.9277 22.9821C36.7152 23.0698 36.4874 23.1148 36.2574 23.1143ZM28.6743 24.2805C29.5973 24.2805 30.4996 24.5542 31.2671 25.067C32.0346 25.5798 32.6327 26.3087 32.9859 27.1614C33.3392 28.0142 33.4316 28.9526 33.2515 29.8578C33.0714 30.7631 32.627 31.5947 31.9743 32.2474C31.3216 32.9 30.4901 33.3445 29.5848 33.5246C28.6795 33.7047 27.7411 33.6122 26.8884 33.259C26.0356 32.9058 25.3068 32.3076 24.794 31.5402C24.2812 30.7727 24.0074 29.8704 24.0074 28.9474C24.0088 27.7101 24.5009 26.5238 25.3758 25.6489C26.2507 24.7739 27.437 24.2818 28.6743 24.2805ZM28.6743 21.9474C27.2899 21.9474 25.9365 22.3579 24.7853 23.1271C23.6342 23.8963 22.737 24.9895 22.2072 26.2686C21.6773 27.5477 21.5387 28.9551 21.8088 30.313C22.0789 31.6709 22.7456 32.9182 23.7246 33.8971C24.7035 34.8761 25.9508 35.5428 27.3087 35.8129C28.6666 36.083 30.074 35.9444 31.3531 35.4145C32.6322 34.8847 33.7254 33.9875 34.4946 32.8364C35.2638 31.6852 35.6743 30.3319 35.6743 28.9474C35.6743 27.0909 34.9368 25.3104 33.6241 23.9976C32.3113 22.6849 30.5308 21.9474 28.6743 21.9474Z" fill="white"/>
<defs>
<linearGradient id="paint0_linear_1856_534" x1="5.67713e-07" y1="7.92167" x2="58.1439" y2="50.2223" gradientUnits="userSpaceOnUse">
<stop stop-color="#7C39BB"/>
<stop offset="0.325" stop-color="#B1409E"/>
<stop offset="0.65" stop-color="#EC4E77"/>
<stop offset="1" stop-color="#FCDA45"/>
</linearGradient>
</defs>
</svg>
