<svg width="25" height="25" viewBox="0 0 25 25" fill="none" xmlns="http://www.w3.org/2000/svg">
<path d="M12.6749 0.00116137C5.64513 -0.0937816 -0.0937861 5.64486 0.00116143 12.6742C0.0949071 19.4158 5.58444 24.9051 12.3263 24.9988C19.3572 25.095 25.095 19.3563 24.9988 12.3269C24.9063 5.58417 19.4167 0.0949026 12.6749 0.00116137ZM20.2719 19.6658C20.2479 19.6917 20.2186 19.712 20.1859 19.7252C20.1533 19.7385 20.1181 19.7445 20.0829 19.7426C20.0477 19.7408 20.0133 19.7312 19.9822 19.7146C19.9511 19.698 19.924 19.6748 19.9029 19.6465C19.3654 18.9433 18.7071 18.3413 17.9589 17.8685C16.4289 16.8866 14.4903 16.3458 12.5006 16.3458C10.5109 16.3458 8.57228 16.8866 7.0423 17.8685C6.29406 18.3411 5.63581 18.9429 5.09828 19.6459C5.07717 19.6742 5.05009 19.6974 5.01899 19.714C4.98789 19.7306 4.95351 19.7402 4.9183 19.742C4.88309 19.7439 4.84791 19.7379 4.81525 19.7246C4.78259 19.7114 4.75325 19.6911 4.72931 19.6652C2.96597 17.7617 1.96711 15.2745 1.92415 12.6803C1.8262 6.83285 6.62465 1.93848 12.4747 1.92406C18.3248 1.90964 23.077 6.65979 23.077 12.5C23.079 15.1568 22.0771 17.7163 20.2719 19.6658Z" fill="#868686"/>
<path d="M12.5006 5.76985C11.3155 5.76985 10.2441 6.21392 9.4827 7.02093C8.72131 7.82795 8.34092 8.94383 8.42686 10.1414C8.60113 12.5 10.4286 14.4229 12.5006 14.4229C14.5726 14.4229 16.3964 12.5 16.5743 10.142C16.6633 8.95585 16.2859 7.85018 15.5119 7.02814C14.7475 6.21692 13.6778 5.76985 12.5006 5.76985Z" fill="#868686"/>
</svg>
