<svg width="59" height="59" viewBox="0 0 59 59" fill="none" xmlns="http://www.w3.org/2000/svg">
<circle cx="29.072" cy="29.8444" r="29.072" fill="#E10B0B"/>
<path d="M29.5039 12.7725C19.8377 12.7725 12 20.6066 12 30.2686C12 37.431 16.3135 43.5859 22.4789 46.2962C22.432 45.0778 22.4711 43.6093 22.7837 42.2815C23.1197 40.8599 25.0342 32.7446 25.0342 32.7446C25.0342 32.7446 24.4715 31.6276 24.4715 29.9796C24.4715 27.3864 25.9719 25.4493 27.8473 25.4493C29.4414 25.4493 30.2072 26.6444 30.2072 28.0737C30.2072 29.6749 29.1835 32.065 28.66 34.2833C28.2224 36.1422 29.5899 37.6497 31.4262 37.6497C34.7395 37.6497 36.9743 33.3929 36.9743 28.3471C36.9743 24.512 34.3878 21.6455 29.6915 21.6455C24.3856 21.6455 21.0723 25.6055 21.0723 30.0264C21.0723 31.5495 21.5256 32.6274 22.2288 33.4553C22.5492 33.8381 22.5961 33.9943 22.4789 34.4317C22.3929 34.7519 22.2054 35.5252 22.1194 35.8376C22.0022 36.2828 21.6428 36.4391 21.2443 36.275C18.7984 35.2752 17.6575 32.604 17.6575 29.589C17.6575 24.6214 21.8538 18.6618 30.1681 18.6618C36.8493 18.6618 41.2487 23.4966 41.2487 28.683C41.2487 35.5486 37.4276 40.6725 31.8013 40.6725C29.9102 40.6725 28.1364 39.6493 27.5269 38.4933C27.5269 38.4933 26.5111 42.5236 26.2923 43.3047C25.925 44.656 25.1983 45.9994 24.534 47.0539C26.1453 47.529 27.8162 47.771 29.4961 47.7725C39.1623 47.7725 47 39.9383 47 30.2764C47 20.6145 39.1701 12.7725 29.5039 12.7725Z" fill="white"/>
</svg>
