<svg width="378" height="255" viewBox="0 0 378 255" fill="none" xmlns="http://www.w3.org/2000/svg">
<path d="M377.12 224.096H0V224.267H377.12V224.096Z" fill="#EBEBEB"/>
<path d="M327.183 231.379H302.202V231.55H327.183V231.379Z" fill="#EBEBEB"/>
<path d="M236.131 231.297H229.576V231.468H236.131V231.297Z" fill="#EBEBEB"/>
<path d="M339.333 235.109H324.859V235.28H339.333V235.109Z" fill="#EBEBEB"/>
<path d="M86.436 237.382H53.8604V237.553H86.436V237.382Z" fill="#EBEBEB"/>
<path d="M83.6376 229.907H78.8633V230.078H83.6376V229.907Z" fill="#EBEBEB"/>
<path d="M187.391 230.64H141.458V230.811H187.391V230.64Z" fill="#EBEBEB"/>
<path d="M178.755 193.569H33.1185C31.9776 193.567 30.8841 193.154 30.0781 192.421C29.272 191.689 28.8193 190.696 28.8193 189.66V3.87411C28.8293 2.84468 29.2864 1.86038 30.0913 1.135C30.8963 0.409628 31.9841 0.00176346 33.1185 0H178.755C179.897 0 180.993 0.41177 181.8 1.14472C182.608 1.87768 183.062 2.87178 183.062 3.90833V189.66C183.062 190.697 182.608 191.691 181.8 192.424C180.993 193.157 179.897 193.569 178.755 193.569ZM33.1185 0.136895C32.0276 0.138708 30.9821 0.533248 30.2114 1.23392C29.4407 1.93458 29.0079 2.88412 29.0079 3.87411V189.66C29.0079 190.65 29.4407 191.6 30.2114 192.3C30.9821 193.001 32.0276 193.396 33.1185 193.397H178.755C179.846 193.396 180.893 193.001 181.665 192.301C182.437 191.6 182.871 190.651 182.873 189.66V3.87411C182.871 2.88349 182.437 1.93397 181.665 1.2335C180.893 0.533026 179.846 0.138704 178.755 0.136895H33.1185Z" fill="#EBEBEB"/>
<path d="M341.905 193.569H196.261C195.119 193.567 194.025 193.154 193.218 192.422C192.41 191.689 191.956 190.696 191.954 189.66V3.87411C191.966 2.84406 192.425 1.85976 193.231 1.13458C194.037 0.409388 195.126 0.00174423 196.261 0H341.905C343.038 0.00356233 344.124 0.412223 344.927 1.13741C345.73 1.86259 346.186 2.84586 346.196 3.87411V189.66C346.196 190.694 345.745 191.686 344.94 192.419C344.136 193.152 343.044 193.565 341.905 193.569ZM196.261 0.136895C195.169 0.138704 194.123 0.533026 193.351 1.2335C192.579 1.93397 192.145 2.88349 192.143 3.87411V189.66C192.145 190.651 192.579 191.6 193.351 192.301C194.123 193.001 195.169 193.396 196.261 193.397H341.905C342.996 193.396 344.043 193.001 344.815 192.301C345.586 191.6 346.021 190.651 346.023 189.66V3.87411C346.021 2.88349 345.586 1.93397 344.815 1.2335C344.043 0.533026 342.996 0.138704 341.905 0.136895H196.261Z" fill="#EBEBEB"/>
<path d="M323.486 28.2891H53.6338V130.2H323.486V28.2891Z" fill="#F0F0F0"/>
<path d="M318.207 125.415V33.0869L58.9141 33.0869V125.415L318.207 125.415Z" fill="#FAFAFA"/>
<path d="M93.0508 125.408L119.645 33.0801H139.256L112.661 125.408H93.0508Z" fill="white"/>
<path d="M117.187 125.408L143.781 33.0801H152.553L125.958 125.408H117.187Z" fill="white"/>
<path d="M160.103 125.408L186.705 33.0801H206.315L179.713 125.408H160.103Z" fill="white"/>
<path d="M209.551 125.408L236.145 33.0801H244.925L218.323 125.408H209.551Z" fill="white"/>
<path d="M128.379 125.415V33.0869H127.036V125.415H128.379Z" fill="#E0E0E0"/>
<path d="M60.2559 125.415L60.2559 33.0869H58.9133L58.9133 125.415H60.2559Z" fill="#E0E0E0"/>
<path d="M127.037 125.415V33.0869H121.757V125.415H127.037Z" fill="#F0F0F0"/>
<path d="M193.84 125.415V33.0869H192.497V125.415H193.84Z" fill="#E0E0E0"/>
<path d="M192.497 125.415V33.0869H187.217V125.415H192.497Z" fill="#F0F0F0"/>
<path d="M259.331 125.409V33.0801H257.989V125.409H259.331Z" fill="#E0E0E0"/>
<path d="M257.988 125.409V33.0801H252.709V125.409H257.988Z" fill="#F0F0F0"/>
<path d="M324.829 130.2V28.2891H323.487V130.2H324.829Z" fill="#E0E0E0"/>
<path d="M327.846 21.2937H49.2745C48.9651 21.292 48.6689 21.1796 48.4501 20.981C48.2313 20.7825 48.1074 20.5136 48.1055 20.2328C48.1055 19.9508 48.2284 19.6802 48.4474 19.4802C48.6665 19.2801 48.9638 19.1668 49.2745 19.165H327.846C328.157 19.1668 328.454 19.2801 328.673 19.4802C328.892 19.6802 329.015 19.9508 329.015 20.2328C329.013 20.5136 328.889 20.7825 328.67 20.981C328.452 21.1796 328.155 21.292 327.846 21.2937Z" fill="#E0E0E0"/>
<g opacity="0.6">
<path d="M107.359 17.1113H50.3682V203.062H107.359V17.1113Z" fill="#F5F5F5"/>
<path d="M81.247 204.581H76.4727L77.8152 18.6309H79.9497L81.247 204.581Z" fill="#E6E6E6"/>
<path d="M65.43 204.581H63.1221L63.7707 18.6309H64.804L65.43 204.581Z" fill="#E6E6E6"/>
<path d="M97.1088 204.581H94.8008L95.4494 18.6309H96.4827L97.1088 204.581Z" fill="#E6E6E6"/>
</g>
<g opacity="0.6">
<path d="M326.073 17.1113H269.083V203.062H326.073V17.1113Z" fill="#F5F5F5"/>
<path d="M291.416 204.581H286.642L287.984 18.6309H290.119L291.416 204.581Z" fill="#E6E6E6"/>
<path d="M280.88 204.581H278.579L279.22 18.6309H280.254L280.88 204.581Z" fill="#E6E6E6"/>
<path d="M305.264 204.581H302.964L303.613 18.6309H304.638L305.264 204.581Z" fill="#E6E6E6"/>
<path d="M317 204.581H314.699L315.34 18.6309H316.374L317 204.581Z" fill="#E6E6E6"/>
</g>
<path d="M245.287 222.933H255.997V167.23H245.287V222.933Z" fill="#E6E6E6"/>
<path d="M121.123 222.933L249.412 222.933V167.23H121.123V222.933Z" fill="#F0F0F0"/>
<path d="M246.532 222.933H242.67H126.66V224.096H242.67H246.532H250.461V222.933H246.532Z" fill="#E0E0E0"/>
<path opacity="0.5" d="M124.782 193.192H245.755V170.714H124.782V193.192Z" fill="#FAFAFA"/>
<path opacity="0.5" d="M124.782 219.298H245.755V196.82H124.782V219.298Z" fill="#FAFAFA"/>
<path d="M143.117 181.953C143.117 182.442 142.958 182.92 142.659 183.326C142.359 183.732 141.934 184.049 141.437 184.236C140.939 184.423 140.392 184.472 139.863 184.377C139.335 184.281 138.85 184.046 138.469 183.701C138.089 183.355 137.829 182.915 137.724 182.435C137.619 181.956 137.673 181.459 137.879 181.008C138.085 180.556 138.434 180.17 138.882 179.899C139.33 179.627 139.856 179.482 140.395 179.482C140.752 179.482 141.106 179.546 141.437 179.671C141.767 179.795 142.067 179.977 142.32 180.206C142.573 180.436 142.773 180.708 142.91 181.008C143.047 181.308 143.117 181.629 143.117 181.953Z" fill="#E0E0E0"/>
<path d="M232.857 181.953C232.857 182.442 232.697 182.92 232.398 183.326C232.099 183.732 231.673 184.049 231.176 184.236C230.678 184.423 230.131 184.472 229.603 184.377C229.075 184.281 228.589 184.046 228.209 183.701C227.828 183.355 227.569 182.915 227.463 182.435C227.358 181.956 227.412 181.459 227.618 181.008C227.824 180.556 228.173 180.17 228.621 179.899C229.069 179.627 229.595 179.482 230.134 179.482C230.491 179.482 230.846 179.546 231.176 179.671C231.506 179.795 231.806 179.977 232.059 180.206C232.312 180.436 232.513 180.708 232.649 181.008C232.786 181.308 232.857 181.629 232.857 181.953Z" fill="#E0E0E0"/>
<path d="M140.395 210.53C141.898 210.53 143.117 209.424 143.117 208.059C143.117 206.694 141.898 205.588 140.395 205.588C138.891 205.588 137.672 206.694 137.672 208.059C137.672 209.424 138.891 210.53 140.395 210.53Z" fill="#E0E0E0"/>
<path d="M232.857 208.079C232.857 208.568 232.697 209.046 232.398 209.452C232.099 209.858 231.673 210.175 231.176 210.362C230.678 210.549 230.131 210.598 229.603 210.503C229.075 210.407 228.589 210.172 228.209 209.827C227.828 209.481 227.569 209.041 227.463 208.561C227.358 208.082 227.412 207.585 227.618 207.134C227.824 206.682 228.173 206.296 228.621 206.025C229.069 205.753 229.595 205.608 230.134 205.608C230.856 205.608 231.549 205.869 232.059 206.332C232.57 206.796 232.857 207.424 232.857 208.079Z" fill="#E0E0E0"/>
<path d="M187.987 181.953C187.987 182.442 187.827 182.92 187.528 183.326C187.229 183.732 186.803 184.049 186.306 184.236C185.808 184.423 185.261 184.472 184.733 184.377C184.204 184.281 183.719 184.046 183.339 183.701C182.958 183.355 182.698 182.915 182.593 182.435C182.488 181.956 182.542 181.459 182.748 181.008C182.954 180.556 183.303 180.17 183.751 179.899C184.199 179.627 184.725 179.482 185.264 179.482C185.621 179.482 185.975 179.546 186.306 179.671C186.636 179.795 186.936 179.977 187.189 180.206C187.442 180.436 187.643 180.708 187.779 181.008C187.916 181.308 187.987 181.629 187.987 181.953Z" fill="#E0E0E0"/>
<path d="M185.264 210.53C186.768 210.53 187.987 209.424 187.987 208.059C187.987 206.694 186.768 205.588 185.264 205.588C183.76 205.588 182.541 206.694 182.541 208.059C182.541 209.424 183.76 210.53 185.264 210.53Z" fill="#E0E0E0"/>
<path d="M241.478 157.771C241.478 160.279 240.38 162.685 238.425 164.459C236.47 166.233 233.819 167.23 231.054 167.23C228.29 167.23 225.639 166.233 223.684 164.459C221.729 162.685 220.631 160.279 220.631 157.771H241.478Z" fill="#F0F0F0"/>
<path d="M159.061 156.06C159.061 159.017 157.767 161.853 155.463 163.944C153.159 166.035 150.033 167.21 146.775 167.21C143.516 167.21 140.391 166.035 138.087 163.944C135.783 161.853 134.488 159.017 134.488 156.06H159.061Z" fill="#F0F0F0"/>
<path d="M211.881 160.666C211.881 162.407 211.119 164.077 209.763 165.308C208.406 166.539 206.567 167.23 204.648 167.23C202.73 167.23 200.89 166.539 199.534 165.308C198.177 164.077 197.415 162.407 197.415 160.666H211.881Z" fill="#F0F0F0"/>
<path d="M188.56 255.007C269.326 255.007 334.8 251.538 334.8 247.259C334.8 242.98 269.326 239.511 188.56 239.511C107.794 239.511 42.3203 242.98 42.3203 247.259C42.3203 251.538 107.794 255.007 188.56 255.007Z" fill="#F5F5F5"/>
<path d="M262.589 41.3147C260.983 39.8567 257.89 34.333 260.854 31.7321C263.818 29.1311 266.458 31.4925 266.662 32.7588C266.866 34.025 266.323 44.6959 262.589 41.3147Z" fill="#263238"/>
<path d="M261.91 240.01L255.175 240.065L253.342 225.938L260.07 225.883L261.91 240.01Z" fill="#FF8B7B"/>
<path d="M255.168 239.359L262.514 239.298C262.65 239.3 262.781 239.34 262.889 239.414C262.998 239.488 263.078 239.591 263.118 239.709L264.898 245.123C264.945 245.249 264.958 245.383 264.936 245.515C264.914 245.646 264.857 245.771 264.77 245.879C264.684 245.986 264.57 246.073 264.439 246.132C264.307 246.191 264.162 246.221 264.015 246.218C261.368 246.218 257.521 246.088 254.21 246.115C250.318 246.115 248.583 246.362 244.013 246.403C241.252 246.403 240.241 243.898 241.411 243.665C246.592 242.576 249.27 242.433 253.607 239.852C254.063 239.554 254.606 239.382 255.168 239.359Z" fill="#263238"/>
<path opacity="0.2" d="M253.342 225.944L254.292 233.227L261.02 233.172L260.077 225.89L253.342 225.944Z" fill="black"/>
<path d="M252.384 240.448C253.111 240.436 253.834 240.356 254.542 240.208C254.575 240.204 254.606 240.189 254.629 240.167C254.652 240.144 254.667 240.116 254.67 240.085C254.673 240.056 254.666 240.026 254.65 240C254.633 239.974 254.609 239.954 254.579 239.941C254.262 239.798 251.434 238.572 250.657 239.004C250.585 239.045 250.527 239.103 250.487 239.171C250.447 239.24 250.428 239.316 250.431 239.394C250.429 239.525 250.461 239.656 250.524 239.774C250.587 239.893 250.679 239.997 250.793 240.078C251.265 240.356 251.824 240.486 252.384 240.448ZM253.999 240.01C252.543 240.242 251.434 240.195 250.982 239.866C250.903 239.811 250.841 239.738 250.8 239.656C250.759 239.574 250.741 239.484 250.748 239.394C250.743 239.366 250.748 239.337 250.762 239.312C250.775 239.286 250.796 239.265 250.823 239.25C251.246 239.017 252.845 239.565 253.999 240.01Z" fill="#EE0000"/>
<path d="M254.511 240.249C254.547 240.247 254.581 240.235 254.609 240.215C254.632 240.2 254.649 240.178 254.658 240.154C254.668 240.129 254.669 240.103 254.662 240.078C254.662 239.969 254.134 237.34 252.535 237.504C252.112 237.546 251.992 237.744 251.969 237.895C251.856 238.579 253.583 239.907 254.443 240.236L254.511 240.249ZM252.671 237.785C253.636 237.785 254.119 239.216 254.285 239.839C253.395 239.387 252.218 238.346 252.286 237.936C252.286 237.936 252.286 237.819 252.573 237.792L252.671 237.785Z" fill="#EE0000"/>
<path d="M257.151 72.1635L256.457 72.8479L255.809 73.4297C255.379 73.813 254.934 74.1758 254.489 74.5317C253.604 75.2527 252.699 75.9372 251.773 76.5852C249.906 77.9318 247.941 79.1621 245.89 80.2676C244.857 80.822 243.794 81.3491 242.715 81.8488C241.636 82.3484 240.498 82.7796 239.351 83.2177C237 84.0688 234.551 84.6773 232.05 85.0315L231.492 85.1068C231.129 85.1492 230.764 85.1698 230.398 85.1684C229.558 85.1613 228.727 85.0128 227.947 84.7304C227.173 84.4485 226.465 84.0376 225.858 83.5189C225.374 83.1005 224.953 82.6265 224.606 82.1089C224.124 81.3578 223.761 80.549 223.527 79.7064C223.344 79.0537 223.211 78.3905 223.127 77.7214C222.99 76.5645 222.952 75.3997 223.014 74.2374C223.067 73.1286 223.165 72.0608 223.301 71.0136C223.587 68.9122 223.995 66.9067 224.493 64.8533C224.99 62.7999 225.556 60.9039 226.288 58.9189L231.243 59.8088C231.062 63.6555 230.858 67.598 230.994 71.3216C231.019 73.0506 231.221 74.7738 231.597 76.4688C231.672 76.7819 231.775 77.0887 231.907 77.386C232.012 77.6187 232.141 77.7625 232.133 77.7009C232.089 77.5966 232.02 77.5029 231.929 77.4271C231.724 77.2469 231.484 77.103 231.22 77.0027C230.949 76.8993 230.661 76.8368 230.368 76.8179C230.232 76.8179 230.172 76.8179 230.089 76.8179H230.172L230.33 76.7768C232.117 76.3603 233.855 75.7872 235.52 75.0656C237.261 74.3029 238.947 73.4387 240.565 72.4783C242.202 71.4927 243.816 70.4249 245.37 69.2955C246.124 68.7343 246.916 68.1456 247.633 67.5501L248.734 66.6466L249.262 66.2017L249.722 65.8047L257.151 72.1635Z" fill="#FF8B7B"/>
<path d="M261.141 69.747C260.884 63.2924 255.047 61.0474 247.73 65.4485C244.505 67.3043 241.4 69.3268 238.431 71.5061L243.16 85.2914C243.16 85.2914 252.211 82.6835 257.445 77.5637C260.967 74.0866 261.231 71.9442 261.141 69.747Z" fill="#263238"/>
<path opacity="0.2" d="M252.234 72.499C252.234 72.499 247.867 78.1665 246.32 84.1898C248.467 83.359 250.536 82.37 252.505 81.2329L252.234 72.499Z" fill="black"/>
<path d="M230.994 61.8558L233.528 56.6606L226.356 54.7578C226.356 54.7578 225.126 57.2424 225.828 61.5067L230.994 61.8558Z" fill="#FF8B7B"/>
<path d="M234.29 50.5684L228.053 51.246L226.355 54.7573L233.528 56.6602L234.29 50.5684Z" fill="#FF8B7B"/>
<path d="M252.278 116.538C252.278 116.538 247.647 151.761 247.134 170.611C246.606 190.194 250.838 229.694 250.838 229.694L262.989 229.462C262.989 229.462 264.452 187.175 266.217 167.798C268.133 146.675 272.96 116.154 272.96 116.154L252.278 116.538Z" fill="#EE0000"/>
<path opacity="0.6" d="M252.278 116.538C252.278 116.538 247.647 151.761 247.134 170.611C246.606 190.194 250.838 229.694 250.838 229.694L262.989 229.462C262.989 229.462 264.452 187.175 266.217 167.798C268.133 146.675 272.96 116.154 272.96 116.154L252.278 116.538Z" fill="white"/>
<path opacity="0.2" d="M266.753 126.511C261.323 137.374 262.778 161.638 265.863 172.042C265.976 170.53 266.097 169.099 266.218 167.778C267.477 153.856 269.989 135.861 271.58 125.204C270.102 123.26 268.45 123.109 266.753 126.511Z" fill="black"/>
<path d="M264.482 229.934L250.197 230.194L249.141 225.889L264.308 225.854L264.482 229.934Z" fill="#EE0000"/>
<path d="M291.922 240.01L285.194 240.065L283.361 225.938L290.089 225.883L291.922 240.01Z" fill="#FF8B7B"/>
<path d="M285.179 239.359L292.533 239.298C292.668 239.301 292.799 239.342 292.907 239.415C293.015 239.489 293.095 239.592 293.136 239.709L294.916 245.123C294.962 245.249 294.973 245.383 294.951 245.514C294.928 245.645 294.871 245.769 294.785 245.876C294.698 245.983 294.585 246.07 294.455 246.129C294.324 246.189 294.18 246.219 294.034 246.218C291.379 246.218 287.54 246.088 284.229 246.115C280.337 246.115 278.594 246.362 274.031 246.403C271.271 246.403 270.26 243.898 271.429 243.665C276.603 242.576 279.281 242.433 283.625 239.852C284.079 239.554 284.619 239.382 285.179 239.359Z" fill="#263238"/>
<path opacity="0.2" d="M283.361 225.944L284.304 233.227L291.039 233.172L290.097 225.89L283.361 225.944Z" fill="black"/>
<path d="M282.403 240.448C283.13 240.435 283.852 240.355 284.56 240.208C284.593 240.204 284.623 240.189 284.645 240.166C284.667 240.144 284.68 240.115 284.681 240.085C284.686 240.056 284.681 240.027 284.666 240.001C284.651 239.975 284.627 239.954 284.598 239.941C284.274 239.798 281.445 238.572 280.676 239.004C280.603 239.044 280.544 239.102 280.504 239.17C280.464 239.239 280.445 239.316 280.45 239.394C280.448 239.525 280.479 239.654 280.541 239.773C280.602 239.891 280.692 239.996 280.804 240.078C281.279 240.355 281.84 240.485 282.403 240.448ZM284.017 240.01C282.562 240.242 281.453 240.195 281 239.866C280.923 239.81 280.86 239.738 280.818 239.656C280.776 239.574 280.756 239.484 280.759 239.394C280.755 239.366 280.759 239.337 280.773 239.312C280.786 239.286 280.808 239.265 280.835 239.25C281.257 239.017 282.841 239.565 284.017 240.01Z" fill="#EE0000"/>
<path d="M284.523 240.249C284.546 240.248 284.569 240.243 284.59 240.234C284.611 240.225 284.629 240.212 284.644 240.196C284.659 240.179 284.67 240.161 284.676 240.14C284.683 240.12 284.685 240.099 284.681 240.078C284.681 239.969 284.153 237.34 282.554 237.504C282.132 237.546 282.011 237.744 281.981 237.895C281.876 238.579 283.603 239.907 284.463 240.236L284.523 240.249ZM282.69 237.785C283.648 237.785 284.138 239.216 284.304 239.839C283.414 239.387 282.23 238.346 282.298 237.936C282.298 237.936 282.298 237.819 282.585 237.792L282.69 237.785Z" fill="#EE0000"/>
<path d="M264.136 116.305C264.136 116.305 267.492 154.204 269.943 172.904C272.485 192.357 280.857 229.674 280.857 229.674L293.008 229.442C293.008 229.442 289.674 187.073 288.385 167.661C286.974 146.477 286.612 115.84 286.612 115.84L264.136 116.305Z" fill="#EE0000"/>
<path opacity="0.6" d="M264.136 116.305C264.136 116.305 267.492 154.204 269.943 172.904C272.485 192.357 280.857 229.674 280.857 229.674L293.008 229.442C293.008 229.442 289.674 187.073 288.385 167.661C286.974 146.477 286.612 115.84 286.612 115.84L264.136 116.305Z" fill="white"/>
<path d="M294.501 229.934L280.209 230.194L279.16 225.889L294.328 225.854L294.501 229.934Z" fill="#EE0000"/>
<path d="M251.441 63.758C251.441 63.758 246.471 80.5002 252.279 116.538C263.125 116.325 281.34 115.942 286.612 115.853C286.747 110.836 282.667 86.2361 287.441 62.5191C284.007 61.9809 280.533 61.6743 277.048 61.602C271.947 61.4329 266.84 61.5335 261.752 61.9031C258.267 62.2773 254.82 62.8974 251.441 63.758Z" fill="#263238"/>
<path opacity="0.2" d="M285.359 79.399L279.74 75.1758C280.11 78.4749 283.398 86.5585 285.133 90.6517C285.103 87.0651 285.141 83.2799 285.359 79.399Z" fill="black"/>
<path d="M265.259 73.4642L259.127 84.4774C258.997 84.7086 258.952 84.9712 258.998 85.2273C259.043 85.4834 259.177 85.7198 259.38 85.9025C259.583 86.0851 259.844 86.2046 260.127 86.2437C260.41 86.2828 260.699 86.2396 260.952 86.1201L264.957 84.1214C265.175 84.0152 265.421 83.9665 265.668 83.981C265.915 83.9956 266.152 84.0727 266.353 84.2036L270.297 86.784C270.524 86.9336 270.797 87.013 271.078 87.0106C271.358 87.0081 271.63 86.9239 271.853 86.7704C272.076 86.6168 272.239 86.4021 272.318 86.1581C272.396 85.914 272.386 85.6535 272.289 85.4151L267.68 73.6559C267.6 73.4322 267.449 73.2348 267.246 73.0884C267.044 72.9421 266.798 72.8531 266.539 72.8327C266.281 72.8122 266.022 72.8612 265.794 72.9735C265.567 73.0858 265.381 73.2565 265.259 73.4642Z" fill="white"/>
<path d="M275.163 45.9688C274.303 50.4589 273.534 58.6589 277.048 61.5679C277.048 61.5679 276.023 65.6336 266.663 67.0436C260.372 65.2092 261.752 61.8964 261.752 61.8964C267.213 60.5959 266.979 56.9066 265.946 53.4569L275.163 45.9688Z" fill="#FF8B7B"/>
<path opacity="0.2" d="M271.406 49.0146L265.945 53.4226C266.199 54.2263 266.376 55.0485 266.473 55.8799C268.57 55.565 271.398 53.4158 271.572 51.424C271.679 50.6184 271.623 49.8019 271.406 49.0146Z" fill="black"/>
<path d="M278.157 40.4452C276.34 46.2769 275.608 49.7746 271.595 52.1634C265.561 55.75 258.162 51.4789 258.019 45.2571C257.883 39.6718 260.87 31.068 267.824 29.9728C269.352 29.7269 270.923 29.839 272.389 30.2985C273.856 30.758 275.169 31.5496 276.203 32.5984C277.238 33.6472 277.961 34.9185 278.303 36.2917C278.645 37.6648 278.595 39.0945 278.157 40.4452Z" fill="#FF8B7B"/>
<path d="M274.287 44.0177C273.442 42.156 272.831 36.0231 276.354 34.5173C279.876 33.0114 283.534 36.6871 282.606 38.4256C281.181 41.1224 276.248 48.3299 274.287 44.0177Z" fill="#263238"/>
<path d="M276.392 36.681C275.525 34.6276 265.184 33.464 263.736 31.2532C262.016 28.6248 269.068 28.3099 273.918 29.6447C278.18 30.822 281.023 31.9582 280.525 34.833C280.246 36.462 276.392 36.681 276.392 36.681Z" fill="#263238"/>
<path d="M278.64 34.5657C278.64 34.5657 280.902 35.1269 282.139 33.6211C281.747 35.1132 279.824 36.6191 278.64 34.5657Z" fill="#263238"/>
<path d="M268.284 28.2343C265.176 26.0439 260.945 28.6176 261.345 31.4718C261.744 34.3261 272.221 36.4958 272.221 36.4958C272.221 36.4958 272.409 31.1433 268.284 28.2343Z" fill="#263238"/>
<path d="M261.353 31.4857C261.828 33.4844 263.434 35.0518 266.685 36.2154C264.804 34.9528 263.378 33.2113 262.589 31.2119L261.353 31.4857Z" fill="#263238"/>
<path d="M267.877 40.1508C267.764 40.6367 267.394 40.9721 267.047 40.9037C266.7 40.8352 266.511 40.3835 266.625 39.9044C266.738 39.4252 267.115 39.0898 267.462 39.1583C267.809 39.2267 267.997 39.699 267.877 40.1508Z" fill="#263238"/>
<path d="M261.888 38.9734C261.767 39.4525 261.398 39.7879 261.051 39.7195C260.704 39.651 260.515 39.2061 260.629 38.727C260.742 38.2479 261.119 37.9125 261.466 37.9741C261.813 38.0357 262.001 38.4943 261.888 38.9734Z" fill="#263238"/>
<path d="M263.736 39.5898C262.752 40.9363 261.566 42.1525 260.214 43.2039C260.968 44.1827 262.65 44.1347 262.65 44.1347L263.736 39.5898Z" fill="#FF5652"/>
<path d="M263.871 45.7704C264.58 45.93 265.32 45.9318 266.029 45.7757C266.738 45.6196 267.395 45.3101 267.944 44.8737C267.959 44.8603 267.971 44.8443 267.98 44.8267C267.988 44.8091 267.992 44.7902 267.992 44.771C267.992 44.7519 267.988 44.733 267.98 44.7153C267.971 44.6977 267.959 44.6817 267.944 44.6684C267.914 44.6424 267.873 44.6279 267.831 44.6279C267.789 44.6279 267.749 44.6424 267.718 44.6684C267.203 45.0617 266.594 45.3402 265.939 45.4817C265.284 45.6231 264.602 45.6235 263.947 45.4829C263.905 45.4747 263.861 45.482 263.825 45.5032C263.789 45.5244 263.764 45.5577 263.755 45.5958C263.746 45.6339 263.754 45.6737 263.777 45.7065C263.8 45.7392 263.837 45.7622 263.879 45.7704H263.871Z" fill="#263238"/>
<path d="M270.102 38.7541C270.159 38.7646 270.219 38.7606 270.275 38.7425C270.33 38.7243 270.379 38.6928 270.417 38.6513C270.454 38.6097 270.478 38.5597 270.486 38.5067C270.494 38.4536 270.487 38.3996 270.464 38.3503C270.26 37.9287 269.948 37.5573 269.555 37.2668C269.161 36.9764 268.697 36.7753 268.201 36.6802C268.117 36.6703 268.032 36.6906 267.965 36.7366C267.897 36.7826 267.852 36.8508 267.839 36.9266C267.832 36.9639 267.834 37.002 267.844 37.0387C267.854 37.0754 267.871 37.11 267.896 37.1405C267.92 37.171 267.951 37.1968 267.987 37.2165C268.022 37.2362 268.062 37.2493 268.103 37.2551C268.494 37.3332 268.859 37.495 269.168 37.7272C269.476 37.9594 269.719 38.2552 269.875 38.5898C269.896 38.6313 269.928 38.6677 269.967 38.6962C270.006 38.7247 270.052 38.7445 270.102 38.7541Z" fill="#263238"/>
<path d="M259.701 36.5844C259.76 36.5992 259.823 36.5974 259.881 36.579C259.939 36.5607 259.989 36.5267 260.025 36.4817C260.264 36.191 260.575 35.9552 260.932 35.7935C261.29 35.6318 261.685 35.5487 262.084 35.5508C262.168 35.5581 262.252 35.5348 262.317 35.486C262.382 35.4372 262.423 35.367 262.431 35.2907C262.439 35.2145 262.413 35.1385 262.36 35.0794C262.306 35.0204 262.228 34.9831 262.144 34.9759C261.638 34.9622 261.136 35.0597 260.681 35.2599C260.225 35.4601 259.829 35.7571 259.527 36.1258C259.5 36.1551 259.481 36.189 259.469 36.2254C259.457 36.2619 259.453 36.3002 259.458 36.338C259.463 36.3757 259.476 36.4122 259.497 36.4452C259.518 36.4781 259.546 36.5068 259.58 36.5296C259.614 36.557 259.656 36.5759 259.701 36.5844Z" fill="#263238"/>
<path d="M289.085 67.1875C290.458 69.3641 291.604 71.4723 292.796 73.6421C293.988 75.8118 295.059 77.9953 296.077 80.2267C297.095 82.4581 298.083 84.7237 298.943 87.0714C299.837 89.4128 300.593 91.7958 301.206 94.2104L301.666 96.0791C301.867 96.9566 301.953 97.8526 301.922 98.7485C301.858 100.413 301.452 102.052 300.723 103.581C299.443 106.157 297.621 108.482 295.361 110.426C293.344 112.192 291.147 113.781 288.799 115.169C287.66 115.853 286.483 116.483 285.299 117.085C284.115 117.688 282.938 118.242 281.618 118.769L279.114 114.793C280.027 114.108 281.03 113.424 281.965 112.684C282.901 111.945 283.813 111.192 284.718 110.439C286.466 108.968 288.087 107.378 289.568 105.682C290.885 104.228 291.906 102.573 292.585 100.795C292.818 100.132 292.911 99.4356 292.857 98.7416C292.834 98.4626 292.776 98.1869 292.683 97.9203L292.17 96.3871C290.646 92.1343 288.832 87.9715 286.74 83.9228C285.706 81.8694 284.605 79.816 283.504 77.7626C282.403 75.7092 281.241 73.6558 280.117 71.705L289.085 67.1875Z" fill="#FF8B7B"/>
<path d="M287.698 62.5538C293.989 63.7859 298.363 78.68 298.363 78.68L287.117 87.9409C283.542 84.3311 280.729 80.1546 278.821 75.6204C275.842 68.1665 280.97 61.226 287.698 62.5538Z" fill="#263238"/>
<path d="M280.48 114.088L273.247 114.156L277.773 120.775C277.773 120.775 282.924 119.618 283.384 117.271L280.48 114.088Z" fill="#FF8B7B"/>
<path d="M268.744 118.065L272.734 123.376L277.735 120.775L273.247 114.156L268.744 118.065Z" fill="#FF8B7B"/>
<path d="M280.133 45.7841C279.329 47.1259 277.974 48.1249 276.361 48.5631C274.219 49.1312 273.126 47.3995 273.699 45.5582C274.219 43.9018 275.962 41.6088 278.104 41.8484C280.246 42.088 281.091 44.1345 280.133 45.7841Z" fill="#FF8B7B"/>
<path d="M216.025 159.035L207.983 159.564L208.038 160.247L216.08 159.718L216.025 159.035Z" fill="#EE0000"/>
<path d="M223.251 158.561L219.302 158.821L219.356 159.504L223.306 159.244L223.251 158.561Z" fill="#EE0000"/>
<path d="M257.951 78.2146L124.782 86.9279C122.01 87.1242 119.436 88.3044 117.617 90.2124C115.798 92.1205 114.882 94.6025 115.067 97.1197L119.593 154.081C119.807 156.6 121.109 158.941 123.215 160.593C125.321 162.245 128.061 163.076 130.839 162.904L138.381 162.411C138.929 162.376 139.47 162.539 139.886 162.865C140.302 163.191 140.558 163.653 140.598 164.15L141.443 174.705C141.457 174.909 141.538 175.105 141.675 175.267C141.813 175.43 142.001 175.551 142.215 175.616C142.429 175.681 142.659 175.686 142.877 175.631C143.094 175.576 143.288 175.463 143.434 175.307L156.06 162.062C156.591 161.508 157.342 161.166 158.15 161.111L263.985 154.191C266.758 153.996 269.334 152.817 271.154 150.909C272.975 149 273.892 146.518 273.707 143.999L269.181 87.0375C268.967 84.521 267.667 82.1829 265.565 80.531C263.462 78.879 260.726 78.0467 257.951 78.2146Z" fill="#EE0000"/>
<path d="M144.233 113.075L151.429 112.603L152.017 119.995L159.876 119.482L159.288 112.089L166.514 111.61L168.196 132.733L160.97 133.205L160.291 124.663L152.432 125.183L153.111 133.726L145.923 134.198L144.233 113.075Z" fill="white"/>
<path opacity="0.2" d="M124.782 86.9283C122.01 87.1245 119.436 88.3047 117.617 90.2128C115.798 92.1209 114.882 94.6028 115.067 97.1201L119.593 154.082C119.807 156.601 121.109 158.941 123.215 160.593C125.321 162.246 128.061 163.076 130.839 162.905L131.947 162.829C133.79 162.709 135.536 162.039 136.916 160.925C138.297 159.812 139.233 158.315 139.58 156.669L154.748 84.9639L124.782 86.9283Z" fill="black"/>
<path d="M190.77 125.025L177.813 125.874C177.912 126.636 178.264 127.352 178.823 127.927C179.144 128.234 179.538 128.468 179.975 128.613C180.412 128.758 180.88 128.809 181.342 128.763C181.978 128.721 182.59 128.533 183.122 128.215C183.539 127.929 183.894 127.576 184.171 127.175L190.582 127.291C189.884 128.725 188.752 129.95 187.316 130.823C185.999 131.58 184.053 132.037 181.478 132.192C179.678 132.382 177.854 132.206 176.138 131.678C174.762 131.154 173.582 130.282 172.736 129.166C171.768 127.896 171.211 126.404 171.13 124.861C170.995 123.789 171.11 122.704 171.466 121.675C171.822 120.645 172.411 119.695 173.197 118.886C174.765 117.298 177.028 116.406 179.985 116.209C181.942 115.998 183.927 116.209 185.777 116.825C187.194 117.375 188.388 118.31 189.194 119.502C190.117 120.982 190.634 122.641 190.702 124.341L190.77 125.025ZM183.982 122.643C183.89 121.753 183.467 120.918 182.783 120.275C182.438 120.034 182.043 119.86 181.621 119.764C181.199 119.668 180.759 119.651 180.33 119.715C179.901 119.78 179.491 119.923 179.125 120.137C178.759 120.351 178.446 120.631 178.205 120.96C177.802 121.604 177.599 122.334 177.616 123.075L183.982 122.643Z" fill="white"/>
<path d="M192.77 109.892L199.248 109.468L200.93 130.584L194.451 131.008L192.77 109.892Z" fill="white"/>
<path d="M203.593 109.18L210.072 108.756L211.754 129.872L205.282 130.296L203.593 109.18Z" fill="white"/>
<path d="M214.484 122.048C214.361 120.977 214.489 119.894 214.858 118.871C215.227 117.847 215.829 116.906 216.626 116.107C218.24 114.478 220.525 113.566 223.482 113.369C226.851 113.15 229.47 113.871 231.341 115.532C232.895 117.019 233.792 118.972 233.863 121.02C233.934 123.068 233.173 125.069 231.726 126.641C230.127 128.257 227.809 129.169 224.771 129.379C222.412 129.636 220.029 129.127 218.044 127.942C216.988 127.277 216.117 126.398 215.499 125.376C214.881 124.353 214.533 123.214 214.484 122.048ZM220.963 121.61C220.95 122.691 221.359 123.74 222.116 124.574C222.422 124.858 222.792 125.078 223.2 125.219C223.609 125.361 224.046 125.42 224.483 125.392C224.919 125.365 225.343 125.252 225.726 125.061C226.11 124.87 226.443 124.606 226.702 124.287C227.312 123.334 227.541 122.219 227.351 121.131C227.358 120.073 226.955 119.045 226.212 118.229C225.922 117.94 225.562 117.715 225.16 117.573C224.758 117.431 224.326 117.374 223.897 117.408C223.449 117.427 223.011 117.539 222.619 117.736C222.227 117.933 221.889 118.21 221.634 118.544C221.026 119.465 220.799 120.552 220.993 121.61H220.963Z" fill="white"/>
<path d="M235.904 107.058L242.806 106.606L243.19 111.398L242.625 121.151L238.356 121.432L236.281 111.85L235.904 107.058ZM237.413 122.993L243.854 122.568L244.269 127.743L237.82 128.16L237.413 122.993Z" fill="white"/>
<path d="M122.942 68.1729C122.908 69.1749 122.966 70.1776 123.115 71.1709C116.281 73.2421 108.992 73.7661 101.883 72.6973C102.224 71.5265 102.432 70.3269 102.502 69.1175C102.264 70.3353 101.797 71.5068 101.121 72.5809C99.7789 72.3482 99.0247 72.1497 99.0247 72.1497C99.0247 72.1497 100.397 65.4145 97.9235 60.5137C95.4496 55.6128 96.6865 52.875 98.557 52.1015C102.027 42.4231 115.067 43.9494 119.48 47.8783C125.076 52.8613 125.106 66.8998 126.102 70.11C125.28 70.4317 124.473 70.726 123.666 70.9861C123.262 70.0891 123.017 69.1395 122.942 68.1729Z" fill="#263238"/>
<path d="M128.334 83.2383L129.013 85.189C129.262 85.8735 129.511 86.558 129.767 87.2082C130.273 88.5772 130.801 89.9461 131.366 91.2603C131.932 92.5745 132.475 93.9571 133.063 95.2987L133.938 97.3521L134.157 97.8586L134.21 97.975C134.116 97.9009 134.009 97.8429 133.893 97.8038C133.727 97.7491 133.659 97.8038 133.765 97.8038C133.946 97.8032 134.127 97.7778 134.3 97.7285C134.89 97.5589 135.457 97.3293 135.99 97.0441C137.276 96.3639 138.506 95.5999 139.67 94.7579C140.892 93.8955 142.092 92.9715 143.268 92.0201C144.445 91.0686 145.629 90.0761 146.768 89.1042L149.083 90.8838C148.118 92.1433 147.1 93.2932 146.066 94.4636C145.033 95.6341 143.872 96.7292 142.68 97.8175C141.453 98.9537 140.118 99.989 138.69 100.911C137.873 101.431 136.995 101.867 136.073 102.212C135.487 102.425 134.874 102.568 134.247 102.636C133.397 102.732 132.534 102.626 131.743 102.328C130.881 101.995 130.146 101.438 129.631 100.727C129.518 100.569 129.413 100.412 129.33 100.268L129.126 99.8983L128.855 99.3987C128.5 98.7142 128.1 98.0297 127.791 97.3863C127.105 96.0174 126.418 94.6484 125.792 93.2795C125.166 91.9105 124.555 90.5005 123.975 89.0905C123.703 88.406 123.432 87.66 123.175 86.9413C122.919 86.2226 122.67 85.5176 122.421 84.6757L128.334 83.2383Z" fill="#FFC3BD"/>
<path d="M126.546 77.1604C129.149 77.7628 130.966 87.4686 130.966 87.4686L123.801 91.8903C123.801 91.8903 116.937 82.0955 118.936 79.5013C121.018 76.8045 122.753 76.2843 126.546 77.1604Z" fill="#EE0000"/>
<path d="M126.546 77.1604C129.149 77.7628 130.966 87.4686 130.966 87.4686L123.801 91.8903C123.801 91.8903 116.937 82.0955 118.936 79.5013C121.018 76.8045 122.753 76.2843 126.546 77.1604Z" fill="#EE0000"/>
<path opacity="0.4" d="M126.546 77.1604C129.149 77.7628 130.966 87.4686 130.966 87.4686L123.801 91.8903C123.801 91.8903 116.937 82.0955 118.936 79.5013C121.018 76.8045 122.753 76.2843 126.546 77.1604Z" fill="white"/>
<path opacity="0.3" d="M126.313 79.3301L128.312 89.1112L124.284 91.589L126.313 79.3301Z" fill="black"/>
<path d="M146.647 89.3368L149.038 84.1074L151.987 89.3368C151.987 89.3368 150.072 91.9378 147.545 91.3012L146.647 89.3368Z" fill="#FFC3BD"/>
<path d="M151.67 83.5664L155.456 84.949L151.987 89.3365L149.03 84.1071L151.67 83.5664Z" fill="#FFC3BD"/>
<path d="M112.48 240.557H118.793L119.216 227.299H112.903L112.48 240.557Z" fill="#FFC3BD"/>
<path d="M70.1523 223.48L75.9525 225.725L83.5477 214.253L77.74 212.008L70.1523 223.48Z" fill="#FFC3BD"/>
<path d="M77.0685 224.944L71.0346 221.577C70.9314 221.516 70.8074 221.493 70.6863 221.511C70.5652 221.528 70.4555 221.586 70.3784 221.672L66.7505 225.622C66.6602 225.725 66.5954 225.845 66.5603 225.973C66.5253 226.101 66.5208 226.234 66.5473 226.364C66.5737 226.494 66.6304 226.617 66.7136 226.725C66.7968 226.833 66.9045 226.924 67.0296 226.991C69.1565 228.134 70.2426 228.586 72.8976 230.064C74.5343 230.981 76.8121 232.46 79.0672 233.719C81.3224 234.979 82.8384 233.035 82.0012 232.316C78.3432 229.147 78.4488 227.641 77.7624 225.766C77.6483 225.425 77.4018 225.133 77.0685 224.944Z" fill="#263238"/>
<path d="M119.005 239.894H111.922C111.8 239.892 111.682 239.931 111.589 240.003C111.496 240.075 111.435 240.174 111.417 240.284L110.61 245.376C110.59 245.507 110.602 245.64 110.644 245.766C110.687 245.892 110.759 246.008 110.856 246.106C110.953 246.205 111.072 246.283 111.205 246.335C111.339 246.387 111.483 246.413 111.628 246.41C114.102 246.376 115.294 246.239 118.416 246.239C120.332 246.239 124.299 246.423 126.947 246.423C129.594 246.423 129.73 244.048 128.629 243.829C123.688 242.864 121.742 241.536 120.076 240.27C119.78 240.031 119.4 239.898 119.005 239.894Z" fill="#263238"/>
<path opacity="0.2" d="M119.208 227.306L118.997 234.137H112.684L112.902 227.306H119.208Z" fill="black"/>
<path opacity="0.2" d="M77.7397 212.015L83.5398 214.253L79.6253 220.167L73.8252 217.922L77.7397 212.015Z" fill="black"/>
<path d="M126.547 77.1598C126.547 77.1598 129.564 78.1181 123.53 111.705H97.8858C98.3157 102.246 98.3308 96.414 93.3604 76.9955C96.9461 76.323 100.581 75.8884 104.237 75.695C108.111 75.4415 112 75.4415 115.874 75.695C120.883 76.1057 126.547 77.1598 126.547 77.1598Z" fill="#EE0000"/>
<path opacity="0.4" d="M126.547 77.1598C126.547 77.1598 129.564 78.1181 123.53 111.705H97.8858C98.3157 102.246 98.3308 96.414 93.3604 76.9955C96.9461 76.323 100.581 75.8884 104.237 75.695C108.111 75.4415 112 75.4415 115.874 75.695C120.883 76.1057 126.547 77.1598 126.547 77.1598Z" fill="white"/>
<path d="M104.251 75.6881C108.126 75.4412 112.014 75.4412 115.889 75.6881C116.515 75.7428 117.156 75.8044 117.79 75.8729C118.053 76.2326 118.222 76.6424 118.284 77.0709C118.345 77.4993 118.298 77.9348 118.144 78.3438C117.322 80.185 114.373 80.3972 112.231 80.3972C104.304 80.3972 102.961 76.1946 102.908 76.0166L102.833 75.7633L104.251 75.6881Z" fill="white"/>
<path d="M105.405 63.8057C106.159 67.228 106.876 73.4293 104.251 75.6949C104.251 75.6949 105.277 79.1173 112.231 79.1173C119.879 79.1173 115.889 75.6949 115.889 75.6949C111.71 74.7914 111.824 71.9783 112.548 69.343L105.405 63.8057Z" fill="#FFC3BD"/>
<path d="M106.167 61.3896C105.269 64.0796 106.514 70.4452 108.362 72.9093C104.719 71.0133 103.489 65.2364 103.489 65.2364L106.167 61.3896Z" fill="#263238"/>
<path opacity="0.2" d="M108.317 66.0645L112.548 69.3362C112.362 69.9496 112.241 70.5776 112.186 71.2117C110.595 70.9995 108.415 69.4115 108.234 67.8988C108.14 67.2878 108.168 66.6665 108.317 66.0645Z" fill="black"/>
<path d="M101.951 57.7412C103.415 63.2649 103.897 65.6332 107.563 68.0083C113.076 71.5744 120.234 68.7407 120.619 62.9295C120.966 57.7002 118.522 49.5481 112.073 48.2887C110.652 48.004 109.175 48.0535 107.781 48.4327C106.387 48.8118 105.123 49.5079 104.109 50.4549C103.095 51.4019 102.365 52.5683 101.987 53.8436C101.609 55.1188 101.597 56.4605 101.951 57.7412Z" fill="#FFC3BD"/>
<path d="M123.537 111.705C123.537 111.705 128.508 155.799 128.063 173.253C127.633 191.405 120.301 232.802 120.301 232.802H111.779C111.779 232.802 113.129 192.452 112.374 174.622C111.552 155.183 104.749 111.691 104.749 111.691L123.537 111.705Z" fill="#EE0000"/>
<path opacity="0.4" d="M123.537 111.705C123.537 111.705 128.508 155.799 128.063 173.253C127.633 191.405 120.301 232.802 120.301 232.802H111.779C111.779 232.802 113.129 192.452 112.374 174.622C111.552 155.183 104.749 111.691 104.749 111.691L123.537 111.705Z" fill="black"/>
<path d="M111.069 233.089H121.07L121.81 230.194L110.602 229.838L111.069 233.089Z" fill="#EE0000"/>
<path opacity="0.2" d="M112.488 122.677C118.778 134.162 113.747 155.114 111.522 162.91C110.383 151.206 108.46 136.9 106.959 126.38C107.909 120.466 109.584 117.379 112.488 122.677Z" fill="black"/>
<path d="M116.772 111.705C116.772 111.705 110.964 157.565 106.582 172.26C101.385 189.735 81.6014 219.489 81.6014 219.489L73.6895 216.436C73.6895 216.436 85.9308 182.651 89.9132 173.444C98.3984 153.8 91.1351 124.525 97.9157 111.705H116.772Z" fill="#EE0000"/>
<path opacity="0.4" d="M116.772 111.705C116.772 111.705 110.964 157.565 106.582 172.26C101.385 189.735 81.6014 219.489 81.6014 219.489L73.6895 216.436C73.6895 216.436 85.9308 182.651 89.9132 173.444C98.3984 153.8 91.1351 124.525 97.9157 111.705H116.772Z" fill="black"/>
<path d="M72.5957 216.457L82.4159 220.249L84.7767 217.853L73.448 212.918L72.5957 216.457Z" fill="#EE0000"/>
<path d="M111.628 57.8164C111.719 58.2681 112.051 58.5967 112.382 58.5419C112.714 58.4872 112.903 58.0765 112.812 57.6247C112.722 57.173 112.39 56.8444 112.058 56.8923C111.726 56.9402 111.5 57.3578 111.628 57.8164Z" fill="#263238"/>
<path d="M117.254 56.913C117.337 57.3648 117.677 57.6934 118.009 57.6386C118.341 57.5838 118.537 57.1731 118.446 56.7214C118.356 56.2696 118.024 55.9411 117.692 55.989C117.36 56.0369 117.164 56.4545 117.254 56.913Z" fill="#263238"/>
<path d="M117.549 56.0436L118.688 55.5303C118.688 55.5303 118.235 56.4817 117.549 56.0436Z" fill="#263238"/>
<path d="M115.904 57.9336C116.552 58.8996 117.344 59.7796 118.258 60.5483C118.034 60.7539 117.763 60.913 117.465 61.0146C117.167 61.1163 116.848 61.158 116.53 61.1369L115.904 57.9336Z" fill="#ED847E"/>
<path d="M114.26 63.279C114.546 63.2785 114.831 63.2556 115.113 63.2105C115.134 63.2098 115.155 63.2048 115.174 63.196C115.194 63.1872 115.211 63.1747 115.224 63.1595C115.238 63.1442 115.247 63.1265 115.253 63.1076C115.258 63.0886 115.259 63.0688 115.255 63.0496C115.251 63.0303 115.243 63.012 115.231 62.9959C115.218 62.9798 115.202 62.9663 115.184 62.9563C115.165 62.9462 115.145 62.9399 115.123 62.9377C115.102 62.9355 115.08 62.9375 115.06 62.9436C114.439 63.0559 113.797 63.0332 113.188 62.8774C112.578 62.7215 112.018 62.437 111.553 62.0469C111.524 62.0219 111.486 62.0078 111.447 62.0078C111.407 62.0078 111.37 62.0219 111.341 62.0469C111.327 62.0591 111.315 62.0739 111.307 62.0904C111.299 62.1069 111.295 62.1247 111.295 62.1428C111.295 62.1608 111.299 62.1786 111.307 62.1951C111.315 62.2116 111.327 62.2264 111.341 62.2386C112.129 62.9161 113.175 63.2892 114.26 63.279Z" fill="#263238"/>
<path d="M104.086 54.5037C104.251 55.9593 104.503 57.4057 104.84 58.8365C104.84 58.8365 108.611 54.5037 109.237 52.1834C109.088 53.0969 108.796 53.9865 108.37 54.8254C108.37 54.8254 113.446 53.8193 113.944 50.7802C113.935 52.1408 113.768 53.4967 113.446 54.8254C113.446 54.8254 118.288 53.1006 117.843 50.1847C117.398 47.2689 109.961 46.1395 106.53 47.1251C103.098 48.1108 99.7414 51.3073 100.752 55.7016C101.763 60.0959 103.701 61.7455 103.701 61.7455C103.701 61.7455 102.306 57.3169 104.086 54.5037Z" fill="#263238"/>
<path d="M101.687 61.9032C102.153 62.9171 103.042 63.722 104.161 64.1414C105.67 64.689 106.567 63.5185 106.303 62.1633C106.069 60.9381 105.006 59.1858 103.445 59.2132C103.103 59.2269 102.77 59.3177 102.477 59.4772C102.184 59.6368 101.939 59.8601 101.764 60.127C101.59 60.394 101.492 60.6961 101.478 61.0062C101.465 61.3163 101.536 61.6246 101.687 61.9032Z" fill="#FFC3BD"/>
<path d="M104.998 52.3955C104.244 55.1334 105.812 61.4305 107.788 63.8057C104.017 62.0739 102.509 56.3518 102.509 56.3518L104.998 52.3955Z" fill="#263238"/>
<path d="M109.561 56.2567C109.6 56.2461 109.636 56.2285 109.667 56.205C109.698 56.1815 109.723 56.1525 109.742 56.1198C109.901 55.8111 110.138 55.5409 110.435 55.3315C110.731 55.1221 111.078 54.9794 111.446 54.9152C111.525 54.9049 111.595 54.8681 111.644 54.8121C111.693 54.7561 111.717 54.6853 111.71 54.614C111.707 54.5782 111.695 54.5435 111.676 54.5119C111.657 54.4803 111.632 54.4525 111.601 54.4301C111.57 54.4077 111.534 54.3913 111.496 54.3817C111.458 54.3721 111.418 54.3697 111.379 54.3744C110.911 54.4481 110.469 54.6227 110.091 54.8836C109.713 55.1444 109.41 55.4839 109.206 55.8734C109.181 55.921 109.171 55.9743 109.178 56.0269C109.185 56.0795 109.209 56.129 109.246 56.1696C109.284 56.2102 109.334 56.24 109.389 56.2555C109.445 56.2709 109.505 56.2714 109.561 56.2567Z" fill="#263238"/>
<path d="M119.314 54.1345C119.352 54.1359 119.39 54.13 119.425 54.117C119.46 54.104 119.492 54.0843 119.518 54.0592C119.573 54.008 119.604 53.9392 119.604 53.8675C119.604 53.7958 119.573 53.727 119.518 53.6759C119.196 53.36 118.797 53.1173 118.353 52.9674C117.909 52.8176 117.432 52.7648 116.961 52.8134C116.922 52.82 116.884 52.8336 116.851 52.8533C116.817 52.8731 116.789 52.8987 116.766 52.9286C116.744 52.9585 116.728 52.9922 116.72 53.0276C116.712 53.0631 116.712 53.0996 116.719 53.1351C116.736 53.2043 116.781 53.2651 116.846 53.3047C116.911 53.3442 116.99 53.3595 117.066 53.3473C117.438 53.3097 117.814 53.352 118.164 53.4709C118.513 53.5899 118.828 53.782 119.08 54.0318C119.108 54.0636 119.144 54.0894 119.184 54.1071C119.225 54.1249 119.269 54.1342 119.314 54.1345Z" fill="#263238"/>
<path d="M96.4902 85.1205C95.4418 88.1253 94.4387 91.2807 93.5864 94.3883C92.7285 97.4559 92.1011 100.573 91.7083 103.718L91.648 104.293C91.648 104.477 91.648 104.518 91.648 104.683C91.6563 105.006 91.684 105.328 91.731 105.648C91.827 106.398 91.9655 107.142 92.1458 107.879C92.5003 109.406 92.9 110.98 93.4129 112.54C93.9258 114.101 94.3633 115.689 94.8761 117.263L96.3846 121.986L93.5864 123.033C91.8667 120.049 90.3733 117.01 88.978 113.875C88.3067 112.301 87.6505 110.713 87.1075 109.036C86.8359 108.201 86.5795 107.345 86.3532 106.414C86.2458 105.921 86.1702 105.423 86.127 104.922C86.127 104.669 86.127 104.293 86.127 104.067V103.382C86.1909 101.638 86.3672 99.8988 86.6549 98.1734C86.9038 96.4622 87.2734 94.7921 87.6731 93.1288C88.4579 89.7977 89.4655 86.513 90.6901 83.293L96.4902 85.1205Z" fill="#FFC3BD"/>
<path d="M93.3749 76.9962C90.8104 77.6807 87.7256 85.7232 87.7256 85.7232L97.6816 92.1846C97.6816 92.1846 101.317 85.4905 100.238 82.4788C99.1146 79.3439 96.3089 76.1885 93.3749 76.9962Z" fill="#EE0000"/>
<path opacity="0.4" d="M93.3749 76.9962C90.8104 77.6807 87.7256 85.7232 87.7256 85.7232L97.6816 92.1846C97.6816 92.1846 101.317 85.4905 100.238 82.4788C99.1146 79.3439 96.3089 76.1885 93.3749 76.9962Z" fill="white"/>
<path d="M79.6182 227.121C79.7408 227.082 79.8524 227.018 79.945 226.936C80.0376 226.853 80.1088 226.752 80.1537 226.642C80.1973 226.57 80.2202 226.49 80.2202 226.409C80.2202 226.328 80.1973 226.247 80.1537 226.176C79.7012 225.574 77.4158 225.622 77.1367 225.629C77.1078 225.629 77.0796 225.637 77.0556 225.652C77.0315 225.666 77.0125 225.687 77.001 225.711C76.9863 225.732 76.9785 225.757 76.9785 225.783C76.9785 225.808 76.9863 225.833 77.001 225.855C77.5968 226.395 78.7131 227.278 79.4975 227.141L79.6182 227.121ZM77.4988 225.875C78.4114 225.875 79.6333 225.991 79.8746 226.313C79.8953 226.344 79.9062 226.38 79.9062 226.416C79.9062 226.452 79.8953 226.487 79.8746 226.518C79.8413 226.601 79.786 226.675 79.7136 226.733C79.6412 226.792 79.554 226.833 79.4598 226.854C79.045 226.95 78.3209 226.56 77.4988 225.875Z" fill="#EE0000"/>
<path d="M78.17 225.731C78.8639 225.533 79.6031 225.184 79.7615 224.793C79.8008 224.692 79.8014 224.581 79.7631 224.48C79.7248 224.378 79.6498 224.291 79.5503 224.232C79.4624 224.166 79.3591 224.118 79.248 224.093C79.1369 224.068 79.0211 224.067 78.9092 224.088C78.0116 224.232 77.0462 225.628 77.0085 225.69C76.9953 225.711 76.9883 225.734 76.9883 225.759C76.9883 225.783 76.9953 225.806 77.0085 225.827C77.0221 225.847 77.0408 225.864 77.0632 225.876C77.0856 225.888 77.1108 225.894 77.1367 225.895C77.4881 225.886 77.8362 225.831 78.17 225.731ZM78.8639 224.362H78.962C79.0329 224.349 79.1062 224.35 79.1766 224.365C79.247 224.381 79.3128 224.41 79.3693 224.451C79.5201 224.561 79.505 224.643 79.4824 224.704C79.3316 225.081 78.1851 225.533 77.4233 225.622C77.7699 225.095 78.2679 224.665 78.8639 224.376V224.362Z" fill="#EE0000"/>
<path d="M121.373 240.892C121.905 240.932 122.436 240.809 122.881 240.543C122.985 240.458 123.064 240.351 123.111 240.232C123.159 240.112 123.173 239.984 123.153 239.859C123.147 239.785 123.12 239.713 123.075 239.651C123.031 239.588 122.969 239.538 122.896 239.503C122.142 239.12 119.615 240.283 119.329 240.413C119.301 240.424 119.278 240.441 119.261 240.464C119.244 240.486 119.235 240.513 119.235 240.54C119.235 240.567 119.244 240.594 119.261 240.616C119.278 240.639 119.301 240.656 119.329 240.666C120 240.804 120.685 240.88 121.373 240.892ZM122.497 239.708C122.593 239.703 122.689 239.719 122.776 239.756C122.806 239.771 122.83 239.793 122.848 239.819C122.865 239.846 122.874 239.876 122.874 239.907C122.888 239.985 122.88 240.066 122.851 240.141C122.822 240.217 122.773 240.284 122.708 240.338C122.323 240.653 121.282 240.708 119.887 240.495C120.702 240.101 121.584 239.835 122.497 239.708Z" fill="#EE0000"/>
<path d="M119.42 240.694H119.48C120.234 240.386 121.743 239.154 121.607 238.504C121.607 238.346 121.456 238.161 121.041 238.12C120.893 238.105 120.742 238.118 120.6 238.158C120.457 238.198 120.325 238.265 120.211 238.353C119.457 238.955 119.276 240.495 119.269 240.557C119.268 240.581 119.273 240.605 119.285 240.627C119.297 240.648 119.315 240.667 119.337 240.68C119.361 240.694 119.391 240.699 119.42 240.694ZM120.928 238.374H121.018C121.29 238.374 121.313 238.504 121.313 238.531C121.388 238.921 120.377 239.9 119.608 240.318C119.668 239.667 119.95 239.05 120.415 238.552C120.553 238.437 120.734 238.374 120.92 238.374H120.928Z" fill="#EE0000"/>
<path d="M97.5311 110.343L96.8825 112.397C96.792 112.554 97.0032 112.718 97.2973 112.718H123.696C123.93 112.718 124.118 112.616 124.133 112.486L124.367 110.432C124.367 110.289 124.178 110.165 123.93 110.165H97.9535C97.8722 110.16 97.7906 110.173 97.7167 110.204C97.6427 110.235 97.5788 110.283 97.5311 110.343Z" fill="#263238"/>
<path d="M101.016 112.972H100.314C100.179 112.972 100.073 112.91 100.08 112.828L100.405 110.09C100.405 110.015 100.541 109.946 100.676 109.946H101.37C101.514 109.946 101.612 110.015 101.604 110.09L101.28 112.828C101.28 112.937 101.159 112.972 101.016 112.972Z" fill="#EE0000"/>
<path opacity="0.4" d="M101.016 112.972H100.314C100.179 112.972 100.073 112.91 100.08 112.828L100.405 110.09C100.405 110.015 100.541 109.946 100.676 109.946H101.37C101.514 109.946 101.612 110.015 101.604 110.09L101.28 112.828C101.28 112.937 101.159 112.972 101.016 112.972Z" fill="black"/>
<path d="M121.704 112.972H121.011C120.875 112.972 120.769 112.91 120.777 112.828L121.109 110.09C121.109 110.015 121.237 109.946 121.373 109.946H122.066C122.21 109.946 122.315 110.015 122.3 110.09L121.976 112.828C121.968 112.937 121.848 112.972 121.704 112.972Z" fill="#EE0000"/>
<path opacity="0.4" d="M121.704 112.972H121.011C120.875 112.972 120.769 112.91 120.777 112.828L121.109 110.09C121.109 110.015 121.237 109.946 121.373 109.946H122.066C122.21 109.946 122.315 110.015 122.3 110.09L121.976 112.828C121.968 112.937 121.848 112.972 121.704 112.972Z" fill="black"/>
<path d="M111.364 112.972H110.67C110.527 112.972 110.421 112.91 110.436 112.828L110.76 110.09C110.76 110.015 110.889 109.946 111.032 109.946H111.726C111.862 109.946 111.967 110.015 111.96 110.09L111.635 112.828C111.628 112.937 111.499 112.972 111.364 112.972Z" fill="#EE0000"/>
<path opacity="0.4" d="M111.364 112.972H110.67C110.527 112.972 110.421 112.91 110.436 112.828L110.76 110.09C110.76 110.015 110.889 109.946 111.032 109.946H111.726C111.862 109.946 111.967 110.015 111.96 110.09L111.635 112.828C111.628 112.937 111.499 112.972 111.364 112.972Z" fill="black"/>
<path d="M111.885 56.9411L113.024 56.4346C113.024 56.4346 112.571 57.386 111.885 56.9411Z" fill="#263238"/>
<path d="M96.1734 121.213L101.581 124.977L95.3136 126.23C95.3136 126.23 92.6511 123.492 93.5713 121.233L96.1734 121.213Z" fill="#FFC3BD"/>
<path d="M102.909 129.639L97.5994 130.426L94.7031 125.484L101.582 124.978L102.909 129.639Z" fill="#FFC3BD"/>
</svg>
