<svg width="22" height="22" viewBox="0 0 22 22" fill="none" xmlns="http://www.w3.org/2000/svg">
<circle cx="11" cy="11" r="11" fill="#FFB9B9"/>
<path d="M15.0574 7.8264C15.307 7.57683 15.307 7.17218 15.0574 6.9226C14.8078 6.67303 14.4032 6.67303 14.1536 6.9226L10.99 10.0862L7.8264 6.9226C7.57682 6.67303 7.17218 6.67303 6.9226 6.9226C6.67303 7.17218 6.67303 7.57683 6.9226 7.8264L10.0862 10.99L6.9226 14.1536C6.67303 14.4032 6.67303 14.8078 6.9226 15.0574C7.17218 15.307 7.57683 15.307 7.8264 15.0574L10.99 11.8938L14.1536 15.0574C14.4032 15.307 14.8078 15.307 15.0574 15.0574C15.307 14.8078 15.307 14.4032 15.0574 14.1536L11.8938 10.99L15.0574 7.8264Z" fill="#EE0000"/>
</svg>
