<svg width="59" height="59" viewBox="0 0 59 59" fill="none" xmlns="http://www.w3.org/2000/svg">
<circle cx="29.072" cy="29.072" r="29.072" fill="#FF7A00"/>
<path d="M33.1395 29.25C32.7201 29.25 32.3102 29.3743 31.9616 29.6073C31.6129 29.8403 31.3411 30.1714 31.1807 30.5588C31.0202 30.9462 30.9782 31.3725 31.06 31.7838C31.1418 32.1951 31.3438 32.5729 31.6403 32.8694C31.9368 33.1659 32.3146 33.3678 32.7259 33.4496C33.1371 33.5315 33.5634 33.4895 33.9508 33.329C34.3383 33.1685 34.6694 32.8968 34.9024 32.5481C35.1353 32.1994 35.2597 31.7895 35.2597 31.3702C35.2597 30.8079 35.0363 30.2686 34.6387 29.871C34.2411 29.4734 33.7018 29.25 33.1395 29.25Z" fill="white"/>
<path d="M25.9411 33.3289C27.023 32.8808 27.5367 31.6406 27.0886 30.5587C26.6405 29.4769 25.4002 28.9632 24.3184 29.4113C23.2366 29.8594 22.7229 31.0996 23.171 32.1815C23.6191 33.2633 24.8593 33.777 25.9411 33.3289Z" fill="white"/>
<path d="M43.2693 29.1187C43.2693 27.2818 41.7887 25.7876 39.9712 25.7876C39.2051 25.7875 38.4632 26.0555 37.874 26.545C35.8127 25.1451 33.1165 24.2882 30.2383 24.1144L31.534 19.4618L35.4452 20.2392C35.5571 21.7987 36.8586 23.0361 38.4282 23.0361C40.0772 23.0361 41.4188 21.6815 41.4188 20.0201C41.4188 18.3587 40.0301 17 38.381 17C37.2308 17 36.2426 17.659 35.7396 18.6944L30.4392 17.6408L28.6075 24.0909L28.3349 24.0985C25.353 24.2287 22.5432 25.0956 20.3977 26.5444C19.8086 26.0531 19.0652 25.7851 18.2981 25.7876C16.4789 25.7876 15 27.2818 15 29.1187C14.9974 29.7033 15.1491 30.2783 15.4398 30.7857C15.7305 31.293 16.1498 31.7146 16.6555 32.008C16.6203 32.2684 16.6028 32.5309 16.6031 32.7937C16.6096 35.1341 17.9277 37.3285 20.3135 38.9776C22.6775 40.603 25.8077 41.5 29.1346 41.5C32.4616 41.5 35.5989 40.603 37.9588 38.974C40.3458 37.325 41.6603 35.13 41.6603 32.7866C41.6597 32.5247 41.6432 32.2632 41.6108 32.0033C42.1168 31.7112 42.5367 31.2905 42.8279 30.784C43.1191 30.2774 43.2714 29.703 43.2693 29.1187ZM38.4399 18.5901C38.7195 18.5901 38.9928 18.673 39.2252 18.8284C39.4577 18.9837 39.6388 19.2044 39.7458 19.4627C39.8528 19.721 39.8808 20.0052 39.8262 20.2794C39.7717 20.5535 39.6371 20.8054 39.4394 21.0031C39.2417 21.2008 38.9899 21.3354 38.7157 21.3899C38.4415 21.4444 38.1573 21.4165 37.899 21.3095C37.6408 21.2025 37.42 21.0213 37.2647 20.7889C37.1094 20.5564 37.0265 20.2832 37.0265 20.0036C37.0265 19.6287 37.1754 19.2692 37.4405 19.0041C37.7055 18.7391 38.0651 18.5901 38.4399 18.5901ZM16.5737 29.1187C16.572 28.657 16.7534 28.2136 17.0782 27.8855C17.4031 27.5575 17.8447 27.3717 18.3064 27.3689C18.5862 27.3695 18.8617 27.4389 19.1085 27.5709C18.1956 28.4196 17.5225 29.3619 17.102 30.379C16.9352 30.2141 16.8027 30.0178 16.7121 29.8015C16.6214 29.5853 16.5744 29.3532 16.5737 29.1187ZM37.0748 37.6719C34.9699 39.1201 32.1512 39.9181 29.1376 39.9181C26.124 39.9181 23.3041 39.1213 21.201 37.6719C19.2575 36.3297 18.1833 34.5941 18.1833 32.7837C18.1843 32.2351 18.2831 31.691 18.4748 31.177C18.8093 30.25 19.4265 29.3819 20.3093 28.598C20.5852 28.3544 20.8755 28.1276 21.1786 27.919L21.1963 27.9066L21.2104 27.8966C23.3141 26.4525 26.1293 25.6586 29.1382 25.6586C32.1471 25.6586 34.9628 26.4543 37.0665 27.8966L37.0801 27.9066L37.1001 27.9213C37.4029 28.1292 37.6929 28.355 37.9688 28.5975C38.8522 29.3819 39.4694 30.2494 39.8039 31.1776C39.9253 31.5145 40.0104 31.8633 40.0578 32.2183C40.0814 32.4068 40.0932 32.5966 40.0931 32.7866C40.0925 34.5958 39.0206 36.3314 37.0748 37.6719ZM41.1738 30.3737C40.7539 29.356 40.0807 28.4131 39.1673 27.5633C39.415 27.4326 39.6911 27.3646 39.9712 27.3654C40.4328 27.3682 40.8744 27.554 41.1991 27.882C41.5238 28.2101 41.7051 28.6536 41.7033 29.1151C41.7028 29.3497 41.6558 29.5819 41.5649 29.7981C41.474 30.0144 41.3411 30.2104 41.1738 30.3749V30.3737Z" fill="white"/>
<path d="M33.0945 35.5055C33.0797 35.5202 31.5891 37.0409 29.1397 37.0527C26.6661 37.0409 25.2362 35.5668 25.1755 35.5055C25.1299 35.4602 25.0682 35.4348 25.0039 35.4348C24.9396 35.4348 24.8778 35.4602 24.8322 35.5055L24.0253 36.2988C24.0025 36.3215 23.9843 36.3485 23.9719 36.3783C23.9595 36.4081 23.9531 36.44 23.9531 36.4723C23.9531 36.5045 23.9595 36.5364 23.9719 36.5662C23.9843 36.596 24.0025 36.623 24.0253 36.6457C24.2256 36.8459 26.069 38.6616 29.1362 38.6746C32.1951 38.6616 34.0468 36.8459 34.247 36.6457C34.2699 36.6229 34.2881 36.5959 34.3005 36.566C34.3129 36.5362 34.3193 36.5042 34.3193 36.472C34.3193 36.4397 34.3129 36.4077 34.3005 36.3779C34.2881 36.3481 34.2699 36.321 34.247 36.2982L33.4396 35.5049C33.394 35.4598 33.3326 35.4346 33.2685 35.4346C33.2044 35.4346 33.1429 35.4598 33.0974 35.5049L33.0945 35.5055Z" fill="white"/>
</svg>
