<svg width="13" height="13" viewBox="0 0 13 13" fill="none" xmlns="http://www.w3.org/2000/svg">
<path fill-rule="evenodd" clip-rule="evenodd" d="M2.40395 0.911592C3.29347 0.317236 4.33925 0 5.40906 0C6.8436 9.13143e-05 8.21939 0.569999 9.23376 1.58437C10.2481 2.59874 10.818 3.9745 10.8181 5.40903C10.8181 6.47884 10.5009 7.52466 9.90653 8.41418C9.31218 9.30369 8.4674 9.99699 7.47902 10.4064C6.49065 10.8158 5.40306 10.9229 4.35381 10.7142C3.30455 10.5055 2.34075 9.99032 1.58428 9.23385C0.827809 8.47738 0.312646 7.51357 0.103936 6.46432C-0.104774 5.41506 0.00234363 4.32748 0.411743 3.3391C0.821142 2.35073 1.51443 1.50595 2.40395 0.911592ZM5.40903 1C4.53701 1.00001 3.68458 1.25859 2.95952 1.74306C2.23445 2.22754 1.66933 2.91614 1.33562 3.72179C1.00191 4.52744 0.914597 5.41395 1.08472 6.26923C1.25485 7.1245 1.67477 7.91012 2.29139 8.52674C2.908 9.14336 3.69362 9.56328 4.5489 9.73341C5.40417 9.90353 6.29069 9.81622 7.09634 9.48251C7.90199 9.14879 8.59059 8.58367 9.07507 7.85861C9.55953 7.13355 9.81812 6.28111 9.81813 5.40909M5.40903 1C6.57836 1.00008 7.69981 1.46463 8.52665 2.29148C9.35349 3.11832 9.81804 4.23976 9.81813 5.40909" fill="#929292"/>
<path fill-rule="evenodd" clip-rule="evenodd" d="M8.71801 8.71801C8.91327 8.52275 9.22985 8.52275 9.42512 8.71801L12.8536 12.1464C13.0488 12.3417 13.0488 12.6583 12.8536 12.8536C12.6583 13.0488 12.3417 13.0488 12.1464 12.8536L8.71801 9.42512C8.52275 9.22985 8.52275 8.91327 8.71801 8.71801Z" fill="#929292"/>
</svg>
