<svg width="59" height="59" viewBox="0 0 59 59" fill="none" xmlns="http://www.w3.org/2000/svg">
<circle cx="29.072" cy="29.072" r="29.072" fill="#F8D627"/>
<path d="M42.9999 35.7913L42.9885 34.9174L42.1186 34.8403C41.1874 34.7562 39.4724 34.4053 38.8379 33.8218C37.8543 32.9171 36.6818 31.6402 36.6818 30.6943C36.6818 30.6332 36.6818 30.5409 36.9325 30.3818C37.2337 30.1905 37.6931 30.0452 38.0984 29.9171C38.4136 29.8174 38.7112 29.7232 38.968 29.6016C39.526 29.337 40.0856 28.6386 40.0236 27.8654C39.9501 26.9514 39.1521 26.2354 38.2067 26.2354C37.9638 26.2354 37.7193 26.2812 37.4801 26.3716C36.9951 26.5548 36.6498 26.6373 36.4104 26.6706C36.4555 26.109 36.5186 25.458 36.6044 24.8222C36.9132 22.5351 36.2853 20.392 34.8363 18.7326C33.303 16.9768 30.9998 16 28.5171 16H28.5C26.0173 16 23.7141 16.9768 22.181 18.7326C20.7321 20.392 20.1041 22.5503 20.4129 24.8373C20.4984 25.4707 20.5615 26.1168 20.6068 26.6825C20.367 26.6488 20.0216 26.5621 19.5373 26.3791C19.2977 26.2886 19.0529 26.2408 18.8097 26.2408C17.8647 26.2408 17.067 26.9551 16.9937 27.8682C16.9317 28.6408 17.4912 29.3384 18.0492 29.6029C18.306 29.7247 18.6039 29.8186 18.9192 29.9183C19.3244 30.0463 19.7837 30.1914 20.0848 30.3825C20.3354 30.5415 20.3354 30.6337 20.3354 30.6948C20.3354 31.2167 19.9613 32.1829 18.1792 33.822C17.5449 34.4054 15.8196 34.7562 14.8812 34.8403L14.0008 34.9193L14 35.8042C14 35.9054 14.0189 36.4398 14.3918 37.0288C14.7087 37.5294 15.3629 38.1909 16.6794 38.4997C16.9852 38.5712 17.2914 38.6406 17.5982 38.7079C17.7375 38.7388 17.8734 38.7688 17.9881 38.7955L17.993 38.833C18.0474 39.2551 18.0903 39.5885 18.2584 39.9028C18.4066 40.18 18.7764 40.645 19.5884 40.645C19.7381 40.645 19.9056 40.6302 20.1003 40.5998C20.2013 40.5839 20.3049 40.5664 20.4144 40.5478C20.8444 40.4747 21.3317 40.3918 21.8313 40.3918C22.4522 40.3918 22.963 40.5237 23.3928 40.7949C23.6666 40.9677 23.93 41.1548 24.209 41.353C25.2959 42.125 26.5279 43 28.5 43C30.4772 43 31.7198 42.1212 32.8161 41.3459C33.0926 41.1504 33.3537 40.9657 33.6243 40.7949C34.0541 40.5237 34.5649 40.3918 35.1859 40.3918C35.6855 40.3918 36.1727 40.4747 36.6026 40.5477C36.7122 40.5664 36.8158 40.584 36.9169 40.5998C37.1116 40.6302 37.2789 40.645 37.4287 40.645C38.2407 40.645 38.6106 40.1801 38.7588 39.903C38.9268 39.5887 38.9698 39.2553 39.0241 38.8333L39.0291 38.7954C39.1438 38.7688 39.2797 38.7386 39.4191 38.7078C39.6621 38.6541 39.9646 38.5872 40.3378 38.4997C41.6579 38.19 42.308 37.5251 42.6209 37.022C42.9893 36.4297 43.0013 35.8929 42.9999 35.7913ZM25.6 21.7857C26.1339 21.7857 26.5667 22.4333 26.5667 23.2321C26.5667 24.031 26.1339 24.6786 25.6 24.6786C25.0662 24.6786 24.6333 24.031 24.6333 23.2321C24.6333 22.4333 25.0662 21.7857 25.6 21.7857ZM31.8601 26.4684C30.9389 27.3741 29.7456 27.8728 28.5 27.8728C27.2411 27.8728 26.0469 27.3731 25.1374 26.4659C25.0917 26.4214 25.0553 26.3682 25.0304 26.3095C25.0054 26.2507 24.9924 26.1877 24.992 26.1239C24.9916 26.0601 25.004 25.9969 25.0283 25.938C25.0526 25.879 25.0884 25.8254 25.1336 25.7803C25.1788 25.7352 25.2325 25.6995 25.2916 25.6753C25.3507 25.651 25.4141 25.6387 25.478 25.6391C25.542 25.6394 25.6052 25.6524 25.664 25.6773C25.7229 25.7022 25.7762 25.7385 25.8209 25.7841C26.5478 26.5091 27.4993 26.9085 28.5 26.9085C29.4901 26.9085 30.4424 26.5083 31.1816 25.7816C31.2732 25.6931 31.3961 25.6443 31.5235 25.6457C31.651 25.6472 31.7727 25.6989 31.8622 25.7894C31.9517 25.88 32.0017 26.0022 32.0013 26.1294C32.0009 26.2565 31.9501 26.3784 31.8601 26.4684ZM31.4 24.6786C30.8662 24.6786 30.4334 24.0309 30.4334 23.2321C30.4334 22.4334 30.8662 21.7857 31.4 21.7857C31.9339 21.7857 32.3667 22.4334 32.3667 23.2321C32.3667 24.0309 31.9339 24.6786 31.4 24.6786Z" fill="white" stroke="black" stroke-width="0.5"/>
</svg>
