<svg width="59" height="59" viewBox="0 0 59 59" fill="none" xmlns="http://www.w3.org/2000/svg">
<circle cx="29.072" cy="29.8454" r="29.072" fill="#050505"/>
<path d="M36.0733 23.5856C35.9215 23.5071 35.7736 23.4211 35.6304 23.3278C35.2138 23.0524 34.8318 22.7279 34.4927 22.3612C33.6443 21.3905 33.3274 20.4056 33.2107 19.7161H33.2154C33.1179 19.1438 33.1582 18.7734 33.1643 18.7734H29.2999V33.7162C29.2999 33.9169 29.2999 34.1152 29.2915 34.3111C29.2915 34.3355 29.2891 34.358 29.2877 34.3842C29.2877 34.395 29.2877 34.4062 29.2854 34.4175V34.4259C29.2446 34.9621 29.0728 35.48 28.7849 35.9341C28.497 36.3883 28.1019 36.7647 27.6344 37.0303C27.1472 37.3075 26.5961 37.4529 26.0355 37.4522C24.2351 37.4522 22.7758 35.9841 22.7758 34.1709C22.7758 32.3578 24.2351 30.8897 26.0355 30.8897C26.3763 30.8894 26.7151 30.943 27.0391 31.0486L27.0438 27.1139C26.0601 26.9868 25.0607 27.065 24.1087 27.3435C23.1567 27.622 22.2727 28.0948 21.5126 28.732C20.8465 29.3108 20.2865 30.0013 19.8579 30.7725C19.6947 31.0538 19.0793 32.1839 19.0047 34.0181C18.9579 35.0592 19.2705 36.1378 19.4196 36.5836V36.593C19.5133 36.8555 19.8766 37.7513 20.4686 38.5064C20.946 39.1122 21.5101 39.6443 22.1426 40.0856V40.0763L22.1519 40.0856C24.0227 41.3569 26.0969 41.2734 26.0969 41.2734C26.456 41.2589 27.6588 41.2734 29.0247 40.6261C30.5397 39.9084 31.4022 38.8392 31.4022 38.8392C31.9532 38.2003 32.3914 37.4723 32.6979 36.6863C33.0476 35.767 33.1643 34.6645 33.1643 34.2239V26.2964C33.2111 26.3245 33.8355 26.7375 33.8355 26.7375C33.8355 26.7375 34.7351 27.3141 36.1385 27.6895C37.1454 27.9567 38.5019 28.013 38.5019 28.013V24.1767C38.0266 24.2283 37.0615 24.0783 36.0733 23.5856Z" fill="white"/>
</svg>
