<svg width="59" height="59" viewBox="0 0 59 59" fill="none" xmlns="http://www.w3.org/2000/svg">
<circle cx="29.072" cy="29.072" r="29.072" fill="#2F86D6"/>
<path d="M44.8649 20.3317C44.5188 18.7484 43.6537 17.7064 42.0549 17.1989C40.4561 16.6914 37.5631 16.8944 35.5421 18.3356C33.4727 19.8107 32.2476 22.3752 31.8185 24.0059C32.8359 23.5796 33.4796 23.4849 34.5178 23.539C35.5559 23.5931 36.2135 24.351 36.2411 25.2509C36.2619 25.914 36.2273 26.5162 35.992 27.1252C35.2445 29.0671 34.0748 30.9482 32.6975 32.5924C32.4968 32.836 32.2546 33.0593 32.0054 33.2623C31.2994 33.8239 30.7042 33.675 30.2474 32.9104C29.8737 32.2811 29.6245 31.6316 29.403 30.9414C28.5448 28.2552 28.2403 25.4674 27.7558 22.7135C27.5274 21.394 27.2713 20.0205 26.51 18.8634C25.7071 17.659 24.5305 17.1989 23.0494 17.3748C22.032 17.4966 20.4955 18.5589 19.7411 19.1611C19.7411 19.1611 15.8652 22.3346 14.0796 23.9923L15.5469 25.8193C15.5469 25.8193 16.7858 24.9735 17.4502 24.581C17.8447 24.351 18.3084 24.3036 18.6406 24.5945C18.9521 24.8584 19.3051 25.2035 19.4919 25.5486C19.8864 26.2726 20.2671 27.0304 20.5093 27.8086C21.4229 30.8061 22.2742 33.8103 23.1255 36.8281C23.5616 38.3709 24.0876 39.8189 25.0635 41.1316C26.3993 42.9314 27.8042 43.3442 29.9706 42.5863C31.7285 41.9706 33.1958 40.8135 34.5385 39.6159C36.8294 37.5724 38.6289 35.1907 40.4561 32.7683C41.868 30.894 43.0377 28.9995 44.0136 26.8816C44.9756 24.784 45.3563 22.5849 44.8649 20.3317Z" fill="#FEFEFE"/>
</svg>
