<svg width="59" height="59" viewBox="0 0 59 59" fill="none" xmlns="http://www.w3.org/2000/svg">
<circle cx="29.072" cy="29.072" r="29.072" fill="#010101"/>
<path fill-rule="evenodd" clip-rule="evenodd" d="M12.375 29C12.375 19.8187 19.8187 12.375 29 12.375C38.1813 12.375 45.625 19.8187 45.625 29C45.625 38.1813 38.1813 45.625 29 45.625C19.8187 45.625 12.375 38.1813 12.375 29ZM29 14.75C21.1303 14.75 14.75 21.1303 14.75 29C14.75 36.8697 21.1303 43.25 29 43.25C36.8697 43.25 43.25 36.8697 43.25 29C43.25 21.1303 36.8697 14.75 29 14.75Z" fill="white"/>
<path fill-rule="evenodd" clip-rule="evenodd" d="M22.1645 17.5075C23.7885 14.584 26.1904 12.375 28.9999 12.375C31.8094 12.375 34.2114 14.584 35.8353 17.5075C37.4974 20.4997 38.5496 24.5623 38.5496 29C38.5496 33.4377 37.4974 37.5003 35.8353 40.4925C34.2114 43.416 31.8094 45.625 28.9999 45.625C26.1904 45.625 23.7885 43.416 22.1645 40.4925C20.5024 37.5003 19.4502 33.4377 19.4502 29C19.4502 24.5623 20.5024 20.4997 22.1645 17.5075ZM24.2407 18.6608C22.7991 21.256 21.8252 24.9122 21.8252 29C21.8252 33.0878 22.7991 36.744 24.2407 39.3392C25.7204 42.003 27.4995 43.25 28.9999 43.25C30.5003 43.25 32.2794 42.003 33.7591 39.3392C35.2007 36.744 36.1746 33.0878 36.1746 29C36.1746 24.9122 35.2007 21.256 33.7591 18.6608C32.2794 15.997 30.5003 14.75 28.9999 14.75C27.4995 14.75 25.7204 15.997 24.2407 18.6608Z" fill="white"/>
<path fill-rule="evenodd" clip-rule="evenodd" d="M17.7398 18.0206C18.1195 17.4859 18.8608 17.3602 19.3956 17.7398C22.0325 19.6121 25.3651 20.7372 29 20.7372C32.6349 20.7372 35.9675 19.6121 38.6045 17.7398C39.1392 17.3602 39.8805 17.4859 40.2602 18.0206C40.6399 18.5554 40.5142 19.2967 39.9794 19.6764C36.9401 21.8342 33.1269 23.1122 29 23.1122C24.8731 23.1122 21.0599 21.8342 18.0206 19.6764C17.4859 19.2967 17.3602 18.5554 17.7398 18.0206ZM18.0206 38.3237C21.0599 36.1658 24.8731 34.8878 29 34.8878C33.1269 34.8878 36.9401 36.1658 39.9794 38.3237C40.5142 38.7033 40.6399 39.4446 40.2602 39.9794C39.8805 40.5142 39.1392 40.6399 38.6045 40.2602C35.9675 38.388 32.6349 37.2628 29 37.2628C25.3651 37.2628 22.0325 38.388 19.3956 40.2602C18.8608 40.6399 18.1195 40.5142 17.7398 39.9794C17.3602 39.4446 17.4859 38.7033 18.0206 38.3237Z" fill="white"/>
<path fill-rule="evenodd" clip-rule="evenodd" d="M27.8125 27.8125V13.5625H30.1875V27.8125H44.4375V30.1875H30.1875V44.4375H27.8125V30.1875H13.5625V27.8125H27.8125Z" fill="white"/>
</svg>
