<svg width="59" height="59" viewBox="0 0 59 59" fill="none" xmlns="http://www.w3.org/2000/svg">
<circle cx="29.072" cy="29.072" r="29.072" fill="#FF0000"/>
<path d="M44.7923 22.2997C44.7923 19.4874 42.7232 17.225 40.1666 17.225C36.7037 17.0625 33.1719 17 29.5652 17H28.44C24.8395 17 21.3015 17.0625 17.8386 17.225C15.2882 17.225 13.2192 19.4999 13.2192 22.3122C13.0629 24.5371 12.9941 26.762 13.0004 28.9868C12.9941 31.2117 13.0629 33.4366 13.2129 35.6677C13.2129 38.4801 15.282 40.7612 17.8323 40.7612C21.4703 40.9299 25.2021 41.0049 28.9963 40.9987C32.7969 41.0112 36.5161 40.9362 40.1604 40.7612C42.717 40.7612 44.786 38.4801 44.786 35.6677C44.936 33.4366 45.0048 31.2117 44.9986 28.9806C45.0111 26.7557 44.9423 24.5308 44.7923 22.2997ZM25.9397 35.1177V22.8372L35.0034 28.9743L25.9397 35.1177Z" fill="#FFFEFE"/>
</svg>
